<!-- icon666.com - MILLIONS vector ICONS FREE --><svg xmlns="http://www.w3.org/2000/svg" viewBox="0 0 512 512"><g id="outline"><path d="M427.7,233.669,415.137,165.8A56.008,56.008,0,0,0,360.073,120H151.927a56.008,56.008,0,0,0-55.064,45.8L84.3,233.669A1217.075,1217.075,0,0,0,64,454.726V456a7.994,7.994,0,0,0,.845,3.578l16,32A8,8,0,0,0,88,496H424a8,8,0,0,0,7.155-4.422l16-32A7.994,7.994,0,0,0,448,456v-1.274A1217.075,1217.075,0,0,0,427.7,233.669ZM85.146,344H224v56a32,32,0,0,0,64,0V344H426.854c3.212,34.6,4.911,69.338,5.108,104H80.038C80.235,413.338,81.934,378.6,85.146,344ZM256,312a31.8,31.8,0,0,0,16-4.305V400a16,16,0,0,1-32,0V307.7A31.8,31.8,0,0,0,256,312Zm-16-32a16,16,0,1,1,16,16A16.019,16.019,0,0,1,240,280ZM100.028,236.582,112.6,168.717A40,40,0,0,1,151.927,136H360.073A40,40,0,0,1,399.4,168.716l12.568,67.866q8.4,45.351,13.28,91.418H288V280a32,32,0,0,0-64,0v48H86.748Q91.637,282.01,100.028,236.582ZM419.056,480H92.944l-8-16H427.056Z"></path><path d="M168,232H344a16.019,16.019,0,0,0,16-16V168a16.019,16.019,0,0,0-16-16H168a16.019,16.019,0,0,0-16,16v48A16.019,16.019,0,0,0,168,232Zm0-64H344l.01,48H168Z"></path><circle cx="226.408" cy="192" r="8"></circle><circle cx="256" cy="192" r="8"></circle><circle cx="288" cy="192" r="8"></circle><path d="M406.185,421.073c.083-.1.155-.207.232-.311s.161-.208.234-.318.151-.246.225-.37c.059-.1.122-.2.177-.3.068-.126.125-.255.185-.384.051-.109.106-.215.152-.326s.093-.252.138-.378.089-.238.126-.361.067-.257.1-.387.065-.246.09-.372c.031-.151.049-.3.07-.455.015-.107.035-.211.046-.319a8.061,8.061,0,0,0,0-1.584c-.011-.108-.031-.212-.046-.319-.021-.152-.039-.3-.07-.455-.025-.126-.06-.248-.09-.372s-.061-.26-.1-.387-.083-.241-.126-.361-.087-.254-.138-.378-.1-.217-.152-.326c-.06-.129-.117-.258-.185-.384-.055-.1-.118-.2-.177-.3-.074-.124-.144-.249-.225-.37s-.155-.213-.234-.318-.149-.21-.232-.311c-.148-.18-.307-.353-.47-.52-.02-.021-.037-.043-.058-.064l-16-16a8,8,0,0,0-11.314,11.314L380.686,408H352a16,16,0,0,1,0-32h32a8,8,0,0,0,0-16H352a32,32,0,0,0,0,64h28.686l-2.343,2.343a8,8,0,0,0,11.314,11.314l16-16c.021-.021.038-.043.058-.064C405.878,421.426,406.037,421.253,406.185,421.073Z"></path><path d="M160,360H128a8,8,0,0,0,0,16h32a16,16,0,0,1,0,32H131.314l2.343-2.343a8,8,0,0,0-11.314-11.314l-16,16c-.021.021-.038.043-.058.064-.163.167-.322.34-.47.52-.083.1-.155.207-.232.311s-.161.208-.234.318-.151.246-.225.37c-.059.1-.122.2-.177.3-.068.126-.125.255-.185.384-.051.109-.106.215-.152.326s-.093.252-.138.378-.089.238-.126.361-.067.257-.1.387-.065.246-.09.372c-.031.151-.049.3-.07.455-.015.107-.035.211-.046.319a8.061,8.061,0,0,0,0,1.584c.011.108.031.212.046.319.021.152.039.3.07.455.025.126.06.248.09.372s.061.26.1.387.083.241.126.361.087.254.138.378.1.217.152.326c.06.129.117.258.185.384.055.1.118.2.177.3.074.124.144.249.225.37s.155.213.234.318.149.21.232.311c.148.18.307.353.47.52.02.021.037.043.058.064l16,16a8,8,0,0,0,11.314-11.314L131.314,424H160a32,32,0,0,0,0-64Z"></path><path d="M253,96a8,8,0,0,0,16,0c0-11.073-3.331-17.068-6.007-21.885C260.675,69.942,259,66.927,259,60c0-1.139.049-2.227.146-3.235a8,8,0,0,0-15.926-1.53C243.074,56.75,243,58.353,243,60c0,11.073,3.331,17.068,6.007,21.885C251.325,86.058,253,89.073,253,96Z"></path><path d="M258.422,39.8a7.988,7.988,0,0,0,9.566-6.039A43.855,43.855,0,0,0,269,24a8,8,0,0,0-16,0,28.207,28.207,0,0,1-.617,6.236A8,8,0,0,0,258.422,39.8Z"></path><path d="M306.422,80.2a8,8,0,0,0-6.039,9.567A28.207,28.207,0,0,1,301,96a8,8,0,0,0,16,0,43.855,43.855,0,0,0-1.012-9.764A8,8,0,0,0,306.422,80.2Z"></path><path d="M299.173,72c.256,0,.515-.012.774-.037a8,8,0,0,0,7.2-8.728c-.1-1.008-.146-2.1-.146-3.235,0-6.927,1.675-9.942,3.993-14.115C313.669,41.068,317,35.073,317,24a8,8,0,0,0-16,0c0,6.927-1.675,9.942-3.993,14.115C294.331,42.932,291,48.927,291,60c0,1.647.074,3.25.22,4.765A8,8,0,0,0,299.173,72Z"></path><path d="M210.422,80.2a8,8,0,0,0-6.039,9.567A28.207,28.207,0,0,1,205,96a8,8,0,0,0,16,0,43.855,43.855,0,0,0-1.012-9.764A8,8,0,0,0,210.422,80.2Z"></path><path d="M203.173,72c.256,0,.515-.012.774-.037a8,8,0,0,0,7.2-8.728c-.1-1.008-.146-2.1-.146-3.235,0-6.927,1.675-9.942,3.993-14.115C217.669,41.068,221,35.073,221,24a8,8,0,0,0-16,0c0,6.927-1.675,9.942-3.993,14.115C198.331,42.932,195,48.927,195,60c0,1.647.074,3.25.22,4.765A8,8,0,0,0,203.173,72Z"></path><path d="M112.022,303.871a8,8,0,0,0,9.3-6.439l1.455-8a8,8,0,0,0-15.742-2.864l-1.455,8A8,8,0,0,0,112.022,303.871Z"></path><path d="M118.569,267.871a7.994,7.994,0,0,0,9.3-6.44l5.091-28a8,8,0,0,0-15.742-2.862l-5.091,28A8,8,0,0,0,118.569,267.871Z"></path></g></svg>