<!-- icon666.com - MILLIONS vector ICONS FREE --><svg xmlns="http://www.w3.org/2000/svg" viewBox="0 0 512 512"><g id="outline"><path d="M160,459.962V488a8,8,0,0,0,8,8H344a8,8,0,0,0,8-8V459.962A19.96,19.96,0,0,0,360,444V126a22.025,22.025,0,0,0-22-22H174a22.025,22.025,0,0,0-22,22V444A19.96,19.96,0,0,0,160,459.962ZM336,480H176V464H336ZM168,126a6.006,6.006,0,0,1,6-6H338a6.006,6.006,0,0,1,6,6V444a4,4,0,0,1-4,4H172a4,4,0,0,1-4-4Z"></path><path d="M256,200a32,32,0,1,0-32-32A32.036,32.036,0,0,0,256,200Zm0-48a16,16,0,1,1-16,16A16.019,16.019,0,0,1,256,152Z"></path><circle cx="192" cy="424" r="8"></circle><circle cx="192" cy="392" r="8"></circle><circle cx="192" cy="360" r="8"></circle><circle cx="192" cy="328" r="8"></circle><circle cx="192" cy="296" r="8"></circle><circle cx="224" cy="424" r="8"></circle><circle cx="224" cy="392" r="8"></circle><circle cx="224" cy="360" r="8"></circle><circle cx="224" cy="328" r="8"></circle><circle cx="224" cy="296" r="8"></circle><circle cx="256" cy="424" r="8"></circle><circle cx="256" cy="392" r="8"></circle><circle cx="256" cy="360" r="8"></circle><circle cx="256" cy="328" r="8"></circle><circle cx="256" cy="296" r="8"></circle><circle cx="288" cy="424" r="8"></circle><circle cx="288" cy="392" r="8"></circle><circle cx="288" cy="360" r="8"></circle><circle cx="288" cy="328" r="8"></circle><circle cx="288" cy="296" r="8"></circle><circle cx="320" cy="424" r="8"></circle><circle cx="320" cy="392" r="8"></circle><circle cx="320" cy="360" r="8"></circle><circle cx="320" cy="328" r="8"></circle><circle cx="320" cy="296" r="8"></circle><path d="M198.147,54.925a8,8,0,0,0,2.918-10.931A7.874,7.874,0,0,1,200,40a8,8,0,0,1,16,0V80a8,8,0,0,0,16,0V40a24,24,0,1,0-44.784,12.006A8,8,0,0,0,198.147,54.925Z"></path><path d="M256,88a8,8,0,0,0,8-8V72a8,8,0,0,0-16,0v8A8,8,0,0,0,256,88Z"></path><path d="M288,88a8,8,0,0,0,8-8V40a8,8,0,0,1,16,0,7.874,7.874,0,0,1-1.065,3.994,8,8,0,1,0,13.849,8.012A24,24,0,1,0,280,40V80A8,8,0,0,0,288,88Z"></path><path d="M56,336h72a8,8,0,0,0,0-16H56a24,24,0,1,1,20.794-35.994,8,8,0,0,0,13.85-8.012A40,40,0,1,0,56,336Z"></path><path d="M56,464a40.146,40.146,0,0,0,34.644-19.994,8,8,0,0,0-13.85-8.012A24,24,0,1,1,56,400h72a8,8,0,0,0,0-16H56a40,40,0,0,0,0,80Z"></path><path d="M40,352a8,8,0,0,0,0,16H80a8,8,0,0,0,0-16Z"></path><path d="M128,352H112a8,8,0,0,0,0,16h16a8,8,0,0,0,0-16Z"></path><path d="M456,256a40.146,40.146,0,0,0-34.644,19.994,8,8,0,0,0,13.85,8.012A24,24,0,1,1,456,320H384a8,8,0,0,0,0,16h72a40,40,0,0,0,0-80Z"></path><path d="M456,384H384a8,8,0,0,0,0,16h72a24,24,0,1,1-20.794,35.994,8,8,0,0,0-13.85,8.012A40,40,0,1,0,456,384Z"></path><path d="M472,368a8,8,0,0,0,0-16H432a8,8,0,0,0,0,16Z"></path><path d="M384,368h16a8,8,0,0,0,0-16H384a8,8,0,0,0,0,16Z"></path><path d="M256,56a8,8,0,0,0,8-8V24a8,8,0,0,0-16,0V48A8,8,0,0,0,256,56Z"></path></g></svg>