<!-- icon666.com - MILLIONS vector ICONS FREE --><svg xmlns="http://www.w3.org/2000/svg" viewBox="0 0 512 512"><g id="outline"><path d="M370,256a38.043,38.043,0,0,0,38-38V118a38.043,38.043,0,0,0-38-38H344c0-.025,0-.049,0-.073,0-.1-.01-.2-.015-.292-.008-.2-.02-.392-.043-.585-.011-.092-.027-.185-.042-.277-.031-.2-.067-.4-.114-.6-.009-.038-.012-.077-.021-.114A50.172,50.172,0,0,0,295.016,40h-9.249L279.59,21.47A8,8,0,0,0,272,16H240a8,8,0,0,0-7.59,5.47L226.233,40h-9.249a50.167,50.167,0,0,0-46.819,32H152a8,8,0,0,0-8,8v4a46.86,46.86,0,0,0,24,40.992V251.155a102.886,102.886,0,0,0,11.089,46.539A7.979,7.979,0,0,0,176,304v30.7l-6.045,18.135A193.671,193.671,0,0,0,160,414.184V464a8,8,0,0,0,8,8v16a8,8,0,0,0,8,8h32a8,8,0,0,0,8-8V472h80v16a8,8,0,0,0,8,8h32a8,8,0,0,0,8-8V472a8,8,0,0,0,8-8V414.184a193.671,193.671,0,0,0-9.955-61.349L336,334.7V304a7.979,7.979,0,0,0-3.089-6.306A102.789,102.789,0,0,0,343.874,256ZM344,128h16v80H344Zm26-32a22.025,22.025,0,0,1,22,22V218a22.025,22.025,0,0,1-22,22H344V224h24a8,8,0,0,0,8-8V120a8,8,0,0,0-8-8H344V96ZM245.766,32h20.468l2.666,8H243.1ZM216.984,56h78.032a34.194,34.194,0,0,1,28.992,16H187.992A34.194,34.194,0,0,1,216.984,56ZM160.256,88H328V251.155A86.96,86.96,0,0,1,315.6,296H280v-8a7.994,7.994,0,0,0-.845-3.578l-6.88-13.76a61.921,61.921,0,0,0,14.88-19.084,8,8,0,1,0-14.31-7.156A46,46,0,0,1,256,262.838a46,46,0,0,1-16.845-18.416,8,8,0,0,0-14.31,7.156,61.921,61.921,0,0,0,14.88,19.084l-6.88,13.76A7.994,7.994,0,0,0,232,288v8H196.4A86.96,86.96,0,0,1,184,251.155V120a8,8,0,0,0-4.923-7.385A30.906,30.906,0,0,1,160.256,88ZM192,312H320v16H192Zm56-22.111L252.944,280h3.016l.034,0h.012l.034,0h3.016L264,289.889V296H248Zm-72,124.3a177.635,177.635,0,0,1,9.135-56.288l4.631-13.9H322.234l4.631,13.9A177.635,177.635,0,0,1,336,414.184V456H176ZM200,480H184v-8h16Zm128,0H312v-8h16Z"></path><path d="M256,440a40,40,0,1,0-40-40A40.045,40.045,0,0,0,256,440Zm-8-62.624V392a8,8,0,0,0,16,0V377.376a24,24,0,1,1-16,0Z"></path><path d="M240,136h32a8,8,0,0,0,0-16H240a8,8,0,0,0,0,16Z"></path><path d="M240,168h32a8,8,0,0,0,0-16H240a8,8,0,0,0,0,16Z"></path><path d="M240,200h32a8,8,0,0,0,0-16H240a8,8,0,0,0,0,16Z"></path></g></svg>