<!-- icon666.com - MILLIONS vector ICONS FREE --><svg xmlns="http://www.w3.org/2000/svg" viewBox="0 0 512 512"><g id="outline"><path d="M256,288a24,24,0,1,0-24-24A24.027,24.027,0,0,0,256,288Zm0-32a8,8,0,1,1-8,8A8.009,8.009,0,0,1,256,256Z"></path><path d="M320,296V232a64,64,0,0,0-128,0v64a64,64,0,0,0,128,0Zm-64-80a48,48,0,1,1-48,48A48.055,48.055,0,0,1,256,216Zm0-32a48.084,48.084,0,0,1,46.505,36.1,63.849,63.849,0,0,0-93.01,0A48.084,48.084,0,0,1,256,184ZM209.5,307.9a63.849,63.849,0,0,0,93.01,0,48,48,0,0,1-93.01,0Z"></path><path d="M337.459,372.839A135.879,135.879,0,0,0,392,264c0-74.991-61.009-136-136-136S120,189.009,120,264a135.879,135.879,0,0,0,54.541,108.839l-12.365,19.785A119.452,119.452,0,0,0,144,456a7.994,7.994,0,0,0,.845,3.578l16,32A8,8,0,0,0,168,496H344a8,8,0,0,0,7.155-4.422l16-32A7.994,7.994,0,0,0,368,456a119.446,119.446,0,0,0-18.176-63.375ZM136,264A120,120,0,1,1,256,384,120.136,120.136,0,0,1,136,264Zm39.744,137.1,12.142-19.428a135.759,135.759,0,0,0,136.228,0L336.256,401.1A103.456,103.456,0,0,1,351.68,448H160.32A103.456,103.456,0,0,1,175.744,401.1ZM339.056,480H172.944l-8-16H347.056Z"></path><path d="M285,87.576a8,8,0,1,0,11.922-10.671,55.992,55.992,0,0,0-83.166-.335A8,8,0,1,0,225.6,87.335,39.993,39.993,0,0,1,285,87.576Z"></path><path d="M201.918,65.81A71.99,71.99,0,0,1,310.5,68.155a8,8,0,0,0,12.287-10.25,87.992,87.992,0,0,0-132.709-2.862A8,8,0,1,0,201.918,65.81Z"></path><path d="M255.2,90.241a24.046,24.046,0,0,0-17.743,7.866,8,8,0,0,0,11.836,10.767,7.9,7.9,0,0,1,5.907-2.633,7.986,7.986,0,0,1,6.146,2.884,8,8,0,1,0,12.286-10.25A23.946,23.946,0,0,0,255.2,90.241Z"></path><path d="M264,432h16a8,8,0,0,0,0-16H264a8,8,0,0,0,0,16Z"></path><path d="M312,432h8a8,8,0,0,0,0-16h-8a8,8,0,0,0,0,16Z"></path></g></svg>