<!-- icon666.com - MILLIONS vector ICONS FREE --><svg viewBox="0 0 64 64" xmlns="http://www.w3.org/2000/svg"><path d="m28 34a4 4 0 1 0 4-4 4 4 0 0 0 -4 4zm4-2a2 2 0 1 1 -2 2 2 2 0 0 1 2-2z"></path><path d="m29 41a3 3 0 1 0 3-3 3 3 0 0 0 -3 3zm3-1a1 1 0 1 1 -1 1 1 1 0 0 1 1-1z"></path><path d="m41 27.071a.979.979 0 0 0 -.049-.387l-2-6a1 1 0 0 0 -.951-.684h-1v-3a1 1 0 0 0 -1-1h-1v-8h2a1 1 0 0 0 1-1v-4a1 1 0 0 0 -1-1h-3a5.006 5.006 0 0 0 -5 5v9h-1a1 1 0 0 0 -1 1v3h-1a1 1 0 0 0 -.948.684l-2 6a.979.979 0 0 0 -.049.387l.997 13.914-1.775 17.715a3 3 0 0 0 2.985 3.3h13.58a3 3 0 0 0 2.985-3.3l-1.775-17.715zm-10-20.071a3 3 0 0 1 3-3h2v2h-2a1 1 0 0 0 -1 1v9h-2zm-2 11h6v2h-6zm-2.279 4h10.558l1.709 5.127-.988 13.802a.889.889 0 0 0 0 .171l.922 9.22a15.254 15.254 0 0 1 -13.854 0l.932-9.22a.889.889 0 0 0 0-.171l-.985-13.8zm12.81 37.671a.988.988 0 0 1 -.741.329h-13.58a1 1 0 0 1 -1-1.1l.647-6.468a17.031 17.031 0 0 0 14.276 0l.647 6.467a.987.987 0 0 1 -.249.772z"></path><path d="m31 46h2v2h-2z"></path><path d="m27 56h2v2h-2z"></path><path d="m36 29v-4a1 1 0 0 0 -1-1h-6a1 1 0 0 0 -1 1v4a1 1 0 0 0 1 1h6a1 1 0 0 0 1-1zm-2-1h-4v-2h4z"></path></svg>