<!-- icon666.com - MILLIONS vector ICONS FREE --><svg xmlns="http://www.w3.org/2000/svg" viewBox="0 0 512 512"><g id="outline"><path d="M496,452V60a44.049,44.049,0,0,0-44-44H60A44.049,44.049,0,0,0,16,60V452a44.049,44.049,0,0,0,44,44H452A44.049,44.049,0,0,0,496,452ZM32,60A28.032,28.032,0,0,1,60,32H452a28.032,28.032,0,0,1,28,28V96H32Zm0,392V112H480V452a28.032,28.032,0,0,1-28,28H60A28.032,28.032,0,0,1,32,452Z"></path><path d="M464,456V136a8,8,0,0,0-8-8H56a8,8,0,0,0-8,8V456a8,8,0,0,0,8,8H456A8,8,0,0,0,464,456ZM64,272H448v16H64Zm168-32a8,8,0,0,1,0,16h-8V240Zm-24,16H190.624A23.992,23.992,0,0,0,168,224h-6.624A24,24,0,0,1,208,232Zm-48-16h8a8,8,0,0,1,0,16h-8Zm-16,16H96V232a24,24,0,0,1,48,0Zm144.84,0,6.4-64h33.52l6.4,64Zm80,0,6.4-64h33.52l6.4,64ZM448,144V256H431.24l-7.28-72.8A8,8,0,0,0,416,176H368a8,8,0,0,0-7.96,7.2L352.76,256h-1.52l-7.28-72.8A8,8,0,0,0,336,176H288a8,8,0,0,0-7.96,7.2L272.76,256H254.624A23.992,23.992,0,0,0,232,224H223.2A39.986,39.986,0,0,0,152,208.028,39.986,39.986,0,0,0,80,232v24H64V144ZM344,384a16.019,16.019,0,0,0-16,16v5.835A15.986,15.986,0,1,1,349.835,384Zm5.835,16A16.113,16.113,0,0,1,344,405.835V400ZM344,447.419V422.987A32.118,32.118,0,0,0,366.987,400h24.432A56.112,56.112,0,0,1,344,447.419ZM366.987,384A32,32,0,1,0,328,422.987v24.432A56,56,0,1,1,391.419,384ZM264,392a71.885,71.885,0,0,0,26.726,55.93c-.906.044-1.814.07-2.726.07a56,56,0,0,1,0-112q1.371,0,2.732.065A71.885,71.885,0,0,0,264,392Zm-48,0a71.883,71.883,0,0,0,26.723,55.928c-.905.043-1.812.072-2.723.072a56,56,0,0,1,0-112q1.371,0,2.732.065A71.885,71.885,0,0,0,216,392Zm-48,0a71.886,71.886,0,0,0,26.73,55.934Q193.37,448,192,448a56,56,0,0,1,0-112c.912,0,1.82.026,2.726.07A71.885,71.885,0,0,0,168,392Zm-48,0a71.884,71.884,0,0,0,26.464,55.724,56,56,0,0,1,0-111.448A71.884,71.884,0,0,0,120,392Zm261.185,56a71.958,71.958,0,0,0,26.36-48H416v48ZM432,448V400a16.019,16.019,0,0,0-16-16h-8.455a71.961,71.961,0,0,0-95.511-59.883,72.012,72.012,0,0,0-48,0,72.017,72.017,0,0,0-48.013,0,71.88,71.88,0,0,0-43.98-1.285A71.974,71.974,0,0,0,106.815,448H64V304H448V448Z"></path><path d="M184,40H72a8,8,0,0,0-8,8V80a8,8,0,0,0,8,8H184a8,8,0,0,0,8-8V48A8,8,0,0,0,184,40Zm-8,32H80V56h96Z"></path><path d="M296,40a24,24,0,1,0,24,24A24.028,24.028,0,0,0,296,40Zm0,32a8,8,0,1,1,8-8A8.009,8.009,0,0,1,296,72Z"></path><path d="M232,40a24,24,0,1,0,24,24A24.028,24.028,0,0,0,232,40Zm0,32a8,8,0,1,1,8-8A8.009,8.009,0,0,1,232,72Z"></path><path d="M424,40a24,24,0,1,0,24,24A24.028,24.028,0,0,0,424,40Zm0,32a8,8,0,1,1,8-8A8.009,8.009,0,0,1,424,72Z"></path><path d="M360,40a24,24,0,1,0,24,24A24.028,24.028,0,0,0,360,40Zm0,32a8,8,0,1,1,8-8A8.009,8.009,0,0,1,360,72Z"></path><path d="M104,176h8a8,8,0,0,0,0-16h-8a8,8,0,0,0,0,16Z"></path><path d="M144,176h32a8,8,0,0,0,0-16H144a8,8,0,0,0,0,16Z"></path></g></svg>