<!-- icon666.com - MILLIONS vector ICONS FREE --><svg xmlns="http://www.w3.org/2000/svg" viewBox="0 0 512 512"><g id="outline"><path d="M267.7,151.815a24.761,24.761,0,0,0,40.906-2.931l10.821-18.74a8,8,0,0,0-2.928-10.929L278.505,97.28l6.127-15.319A24.764,24.764,0,0,0,261.64,48H240a8,8,0,0,0-8,8V99.871l-16.33,2.353a24.763,24.763,0,0,0-17.916,36.892l10.819,18.74a8,8,0,0,0,10.929,2.929L257.5,138.849ZM264,112a8,8,0,1,1-8-8A8.009,8.009,0,0,1,264,112Zm30.749,28.884a8.763,8.763,0,0,1-14.476,1.037l-8.993-11.428a24.007,24.007,0,0,0,8.312-14.11l21.977,12.689ZM261.64,64a8.763,8.763,0,0,1,8.136,12.019l-5.4,13.493A23.959,23.959,0,0,0,248,89.376V64Zm-43.209,78.928-6.82-11.812a8.764,8.764,0,0,1,6.34-13.056l14.386-2.073a23.99,23.99,0,0,0,8.083,14.246Z"></path><path d="M280,204.963a96,96,0,1,0-48,0V406.7l-13.021,39.06a6.012,6.012,0,0,1-4.515,3.987l-15.955,3.19A28.079,28.079,0,0,0,176,480.4V488a8,8,0,0,0,8,8H328a8,8,0,0,0,8-8v-7.6a28.079,28.079,0,0,0-22.509-27.457l-15.955-3.19a6.013,6.013,0,0,1-4.515-3.986L280,406.7ZM247.59,410.53A8.027,8.027,0,0,0,248,408V328h16v80a8.027,8.027,0,0,0,.41,2.53L268.9,424H243.1ZM176,112a80,80,0,1,1,80,80A80.091,80.091,0,0,1,176,112Zm88,96V312H248V208Zm30.4,257.438,15.956,3.191A12.034,12.034,0,0,1,319.993,480H192.007a12.034,12.034,0,0,1,9.64-11.371l15.956-3.191a22.049,22.049,0,0,0,16.556-14.616L237.767,440h36.466l3.608,10.823A22.05,22.05,0,0,0,294.4,465.438Z"></path><path d="M273.993,181.731a8,8,0,1,0-3.986-15.5,56.75,56.75,0,0,1-28.014,0,8,8,0,1,0-3.986,15.5,72.476,72.476,0,0,0,35.986,0Z"></path><path d="M307.933,91a8,8,0,1,0,14.83-6A71.812,71.812,0,0,0,310,64.373a8,8,0,0,0-12,10.588A55.841,55.841,0,0,1,307.933,91Z"></path><path d="M204.068,91A55.852,55.852,0,0,1,214,74.961a8,8,0,0,0-12-10.588A71.842,71.842,0,0,0,189.236,85a8,8,0,1,0,14.832,6Z"></path></g></svg>