<!-- icon666.com - MILLIONS vector ICONS FREE --><svg xmlns="http://www.w3.org/2000/svg" viewBox="0 0 512 512"><g id="outline"><path d="M456,112H248a7.958,7.958,0,0,0-2.783.508c-.066.024-.117.035-.188.064l-.123.05-.028.011L206.459,128H176a8,8,0,0,0-8,8v96a8,8,0,0,0,8,8h30.459l38.419,15.367.028.011.123.05c.008,0,.017,0,.025,0A7.972,7.972,0,0,0,248,256H368V392a40,40,0,0,0,80,0V256h8a40.045,40.045,0,0,0,40-40V152A40.045,40.045,0,0,0,456,112ZM208,224H184V208h16a8,8,0,0,0,0-16H184V176h16a8,8,0,0,0,0-16H184V144h24a8,8,0,0,0,2.971-.572L240,131.816V236.184l-29.029-11.612A8,8,0,0,0,208,224ZM384,334.624a23.944,23.944,0,0,0,16,0V344a8,8,0,0,1-16,0ZM392,320a8,8,0,1,1,8-8A8.009,8.009,0,0,1,392,320Zm40,72a24,24,0,0,1-48,0V366.624A23.992,23.992,0,0,0,416,344V312a23.992,23.992,0,0,0-32-22.624V256h48Zm24-152H256V128H456a24.039,24.039,0,0,1,22.624,16H464a8,8,0,0,0,0,16h16v16H464a8,8,0,0,0,0,16h16v16H464a8,8,0,0,0,0,16h14.624A24.039,24.039,0,0,1,456,240Z"></path><circle cx="336" cy="184" r="8"></circle><circle cx="367.796" cy="184" r="10"></circle><circle cx="400.592" cy="184" r="8"></circle><path d="M144,144H72a24,24,0,1,1,20.794-35.994,8,8,0,0,0,13.85-8.012A40,40,0,1,0,72,160h72a8,8,0,0,0,0-16Z"></path><path d="M144,208H72a40,40,0,1,0,34.644,60.006,8,8,0,0,0-13.85-8.012A24,24,0,1,1,72,224h72a8,8,0,0,0,0-16Z"></path><path d="M72,192a8,8,0,0,0,0-16H32a8,8,0,0,0,0,16Z"></path><path d="M128,192a8,8,0,0,0,0-16H104a8,8,0,0,0,0,16Z"></path></g></svg>