<!-- icon666.com - MILLIONS vector ICONS FREE --><svg id="Capa_1" enable-background="new 0 0 512 512" viewBox="0 0 512 512" xmlns="http://www.w3.org/2000/svg"><g><path d="m82.798 138.464c12.066 30 41.444 51.245 75.71 51.245 13.705 0 27.121-3.432 39.072-9.962h120.078v-45c0-3.068-.309-6.066-.896-8.964l29.067 29.067c17.545 17.546 46.094 17.544 63.639 0l31.821-31.819-62.531-62.53c-19.832-19.832-46.199-30.754-74.246-30.754h-112.996l1.587-1.587-28.161-28.16h-164.942v70.589l75.337 75.337zm274.747-56.75 41.316 41.317-10.606 10.606c-2.833 2.833-6.6 4.394-10.606 4.394s-7.773-1.561-10.606-4.394l-30.711-30.711c-8.499-8.499-19.799-13.18-31.819-13.18h-99.876v30h68.022c8.271 0 15 6.729 15 15v15h-98.391l-3.632 2.252c-8.136 5.044-17.516 7.71-27.128 7.71-26.455 0-48.323-20.018-51.25-45.703l54.259-54.259h142.995c20.033.001 38.867 7.803 53.033 21.968zm-327.545-51.714h118.837l-73.5 73.5-45.337-45.337z"></path><path d="m425 422v-60h-338v60h-87v90h512v-90zm-308-30h278v30h-278zm365 90h-452v-30h452z"></path><path d="m331 321.32c0-8.271 6.729-15 15-15s15 6.729 15 15h30c0-24.813-20.187-45-45-45s-45 20.187-45 45v10.68h30z"></path><path d="m271 322v-59c0-8.271 6.729-15 15-15s15 6.729 15 15h30c0-24.813-20.187-45-45-45-11.517 0-22.032 4.354-30 11.495-7.968-7.141-18.483-11.495-30-11.495-24.813 0-45 20.187-45 45h30c0-8.271 6.729-15 15-15s15 6.729 15 15v59z"></path><path d="m211 332v-10.68c0-24.813-20.187-45-45-45s-45 20.187-45 45h30c0-8.271 6.729-15 15-15s15 6.729 15 15v10.68z"></path></g></svg>