<!-- icon666.com - MILLIONS vector ICONS FREE --><svg xmlns="http://www.w3.org/2000/svg" viewBox="0 0 512 512"><g id="outline"><circle cx="192" cy="352" r="8"></circle><circle cx="200" cy="320" r="8"></circle><circle cx="312" cy="320" r="8"></circle><circle cx="328" cy="344" r="8"></circle><path d="M373.822,382.077l-16.19-129.519A60.094,60.094,0,0,0,298.1,200h-84.19a60.094,60.094,0,0,0-59.537,52.558l-16.19,129.519a80.034,80.034,0,0,0,19.408,62.867c.768.87,1.556,1.715,2.357,2.547l-7.788,38.94A8,8,0,0,0,160,496h16.507a21.953,21.953,0,0,0,18.305-9.8L204.95,471a79.91,79.91,0,0,0,12.611,1h76.878a79.91,79.91,0,0,0,12.611-1L317.188,486.2a21.953,21.953,0,0,0,18.305,9.8H352a8,8,0,0,0,7.845-9.569l-7.788-38.94c.8-.832,1.589-1.677,2.357-2.547A80.034,80.034,0,0,0,373.822,382.077ZM165.062,296H232v32h-8a8,8,0,0,0-8,8v38.228A35.993,35.993,0,0,1,204,376c-10.735,0-15.621-3.006-21.806-6.813s-13.1-8.052-25.155-8.991ZM248,296h16v32H248Zm-16,48h48v21.587C274.214,362.55,267.022,360,255.994,360s-18.21,2.547-23.994,5.582Zm56-16h-8V296h66.938l8.025,64.2c-12.054.939-18.974,5.186-25.157,8.991S318.733,376,308,376a36.029,36.029,0,0,1-12-1.769V336A8,8,0,0,0,288,328Zm53.756-73.458L344.938,280H280V248.956a47.849,47.849,0,0,1,8.062-26.626l4.219-6.33H298.1A44.07,44.07,0,0,1,341.756,254.542ZM273.136,216A63.766,63.766,0,0,0,264,248.956V280H248V248.956A63.766,63.766,0,0,0,238.864,216Zm-59.231,0h5.814l4.219,6.33A47.849,47.849,0,0,1,232,248.956V280H167.062l3.182-25.458A44.07,44.07,0,0,1,213.905,216ZM181.5,477.328A5.99,5.99,0,0,1,176.507,480h-6.749l4.189-20.942a79.969,79.969,0,0,0,14.711,7.533ZM217.561,456a64,64,0,0,1-63.507-71.938l1-7.965c8.665.523,13.192,3.292,18.756,6.716C180.8,387.119,188.734,392,204,392s23.193-4.881,30.19-9.187c6.186-3.806,11.071-6.813,21.806-6.813s15.622,3.007,21.809,6.813C284.8,387.12,292.732,392,308,392s23.2-4.88,30.194-9.187c5.565-3.424,10.093-6.193,18.759-6.717l1,7.966A64,64,0,0,1,294.439,456Zm117.932,24a5.99,5.99,0,0,1-4.993-2.672l-7.158-10.737a79.969,79.969,0,0,0,14.711-7.533L342.242,480Z"></path><path d="M256,392a24,24,0,1,0,24,24A24.027,24.027,0,0,0,256,392Zm0,32a8,8,0,1,1,8-8A8.009,8.009,0,0,1,256,424Z"></path><path d="M248,176V120a8,8,0,0,0-16,0v56a8,8,0,0,0,16,0Z"></path><path d="M129.957,63.226a8,8,0,0,0,10.658-3.793A48.009,48.009,0,0,1,232,80v8a8,8,0,0,0,16,0V80A64.009,64.009,0,0,0,126.163,52.567,8,8,0,0,0,129.957,63.226Z"></path><path d="M216,96a40,40,0,1,0-74.643,20.006,8,8,0,0,0,13.849-8.012A24,24,0,1,1,200,96v16a8,8,0,0,0,16,0Z"></path><path d="M208,128a8,8,0,0,0-8,8v24a8,8,0,0,0,16,0V136A8,8,0,0,0,208,128Z"></path><path d="M272,144a8,8,0,0,0,8-8V120a8,8,0,0,0-16,0v16A8,8,0,0,0,272,144Z"></path><path d="M272,96a8,8,0,0,0,8-8V80a48.009,48.009,0,0,1,91.385-20.567,8,8,0,0,0,14.452-6.866A64.009,64.009,0,0,0,264,80v8A8,8,0,0,0,272,96Z"></path><path d="M336,56a40.045,40.045,0,0,0-40,40v16a8,8,0,0,0,16,0V96a24,24,0,1,1,44.794,11.994,8,8,0,1,0,13.849,8.012A40.007,40.007,0,0,0,336,56Z"></path><path d="M304,168a8,8,0,0,0,8-8V136a8,8,0,0,0-16,0v24A8,8,0,0,0,304,168Z"></path><path d="M272,184a8,8,0,0,0,8-8V160a8,8,0,0,0-16,0v16A8,8,0,0,0,272,184Z"></path></g></svg>