<!-- icon666.com - MILLIONS vector ICONS FREE --><svg xmlns="http://www.w3.org/2000/svg" viewBox="0 0 512 512"><g id="outline"><path d="M85.656,216H88v24a8,8,0,0,0,8,8H424a8,8,0,0,0,8-8V214a26.038,26.038,0,0,0,16-24V74a34.038,34.038,0,0,0-34-34H312A248.1,248.1,0,0,0,78.113,205.334,8,8,0,0,0,85.656,216ZM416,232H104V216H416ZM312,56H414a18.021,18.021,0,0,1,18,18V190a10.011,10.011,0,0,1-10,10H97.267A232.453,232.453,0,0,1,312,56Z"></path><path d="M400,88H310.482a141.026,141.026,0,0,0-108.628,50.878A8,8,0,0,0,208,152H400a8,8,0,0,0,8-8V96A8,8,0,0,0,400,88Zm-88,48v-8h32v8Zm80,0H360V120a8,8,0,0,0-8-8H304a8,8,0,0,0-8,8v16H226.789a125.016,125.016,0,0,1,83.693-32H392Z"></path><path d="M184,480a64.072,64.072,0,0,0,64-64V336a8,8,0,0,0-16,0v80a48.005,48.005,0,0,1-89.147,24.731,8,8,0,0,0-13.706,8.258A63.556,63.556,0,0,0,184,480Z"></path><path d="M106.665,409.739A55.723,55.723,0,0,0,144,424q1.132,0,2.272-.045a56.007,56.007,0,0,0,11.371-110.28,29.434,29.434,0,0,1-16.431-10.727,28.861,28.861,0,0,1-3.663-27.956,8,8,0,0,0-14.84-5.984,44.952,44.952,0,0,0,5.7,43.539A45.478,45.478,0,0,0,153.755,329.2a40.006,40.006,0,1,1-36.42,68.621,8,8,0,1,0-10.67,11.922Z"></path><path d="M117.335,338.184a8,8,0,0,0-10.67-11.923A56.083,56.083,0,0,0,88,368a8,8,0,0,0,16,0A40.062,40.062,0,0,1,117.335,338.184Z"></path><path d="M248,288a8,8,0,0,0-16,0v16a8,8,0,0,0,16,0Z"></path><path d="M264,416a64.007,64.007,0,0,0,118.853,32.989,8,8,0,0,0-13.706-8.258A48.005,48.005,0,0,1,280,416V376a8,8,0,0,0-16,0Z"></path><path d="M272,352a8,8,0,0,0,8-8V288a8,8,0,0,0-16,0v56A8,8,0,0,0,272,352Z"></path><path d="M405.961,398.442a8,8,0,0,0-11.3-.625,40,40,0,1,1-36.42-68.621,45.476,45.476,0,0,0,25.343-16.648,44.952,44.952,0,0,0,5.7-43.54,8,8,0,0,0-14.84,5.984,28.861,28.861,0,0,1-3.664,27.957,29.432,29.432,0,0,1-16.43,10.726,56.007,56.007,0,0,0,11.372,110.28Q366.868,424,368,424a55.725,55.725,0,0,0,37.334-14.261A8,8,0,0,0,405.961,398.442Z"></path><path d="M416,376a8,8,0,0,0,8-8,56.083,56.083,0,0,0-18.665-41.739,8,8,0,0,0-10.67,11.923A40.062,40.062,0,0,1,408,368,8,8,0,0,0,416,376Z"></path><circle cx="336" cy="176" r="8"></circle><circle cx="365.592" cy="176" r="8"></circle><circle cx="397.592" cy="176" r="8"></circle><path d="M171.562,121.344c-2.948,1.965-5.837,4.089-8.589,6.312A8,8,0,1,0,173.027,140.1c2.374-1.918,4.868-3.75,7.411-5.446a8,8,0,1,0-8.876-13.312Z"></path><path d="M155.162,145.668a8,8,0,0,0-11.221,1.443,116.908,116.908,0,0,0-12,19.11l-3.1,6.2a8,8,0,1,0,14.31,7.156l3.1-6.2A100.876,100.876,0,0,1,156.6,156.889,8,8,0,0,0,155.162,145.668Z"></path></g></svg>