<!-- icon666.com - MILLIONS vector ICONS FREE --><svg viewBox="0 0 512 512" xmlns="http://www.w3.org/2000/svg"><g id="outline"><path d="m495.671 393.49-17-178.445a105 105 0 0 0 -104.522-95.045h-58.372a24.114 24.114 0 0 0 -10.733 2.534l-10.933 5.466h-76.222l-10.933-5.466a24.114 24.114 0 0 0 -10.733-2.534h-58.372a105 105 0 0 0 -104.527 95.045l-16.995 178.445a71.712 71.712 0 0 0 142.763 13.745l6.368-48.281c0-.023.01-.045.013-.068a51.93 51.93 0 0 0 82.317-6.9c.07 0 .139.011.21.011h90.608a8.024 8.024 0 0 1 7.932 6.954l6.368 48.281a71.712 71.712 0 0 0 142.763-13.742zm-291.671-33.49a36 36 0 1 1 36-36 36.04 36.04 0 0 1 -36 36zm261.5 77.769a55.712 55.712 0 0 1 -96.68-32.2c-.01-.1-.02-.192-.033-.288l-6.387-48.42a24.069 24.069 0 0 0 -23.792-20.861h-84.021a52 52 0 1 0 -98.479 8.256 7.959 7.959 0 0 0 -2.8 2.6 23.787 23.787 0 0 0 -3.71 10l-6.387 48.421c-.013.1-.023.192-.033.288a55.712 55.712 0 1 1 -110.922-10.559l16.995-178.444a89 89 0 0 1 88.6-80.562h58.372a8.047 8.047 0 0 1 3.578.844l12.621 6.311a7.994 7.994 0 0 0 3.578.845h80a7.994 7.994 0 0 0 3.578-.845l12.621-6.311a8.047 8.047 0 0 1 3.578-.844h58.372a89 89 0 0 1 88.6 80.562l17 178.444a55.83 55.83 0 0 1 -14.249 42.763z"></path><path d="m128 168a56 56 0 1 0 56 56 56.064 56.064 0 0 0 -56-56zm0 96a40 40 0 1 1 40-40 40.045 40.045 0 0 1 -40 40z"></path><path d="m128 216a8 8 0 0 0 8-8v-8a8 8 0 0 0 -16 0v8a8 8 0 0 0 8 8z"></path><path d="m128 232a8 8 0 0 0 -8 8v8a8 8 0 0 0 16 0v-8a8 8 0 0 0 -8-8z"></path><path d="m112 216h-8a8 8 0 0 0 0 16h8a8 8 0 0 0 0-16z"></path><path d="m144 216a8 8 0 0 0 0 16h8a8 8 0 0 0 0-16z"></path><path d="m320.2 187.632a28 28 0 1 0 39.6 0 27.82 27.82 0 0 0 -39.6 0zm28.284 28.285a12 12 0 1 1 -16.97-16.97 12 12 0 1 1 16.97 16.971z"></path><path d="m320.2 256.2a28 28 0 1 0 39.6 0 28.032 28.032 0 0 0 -39.6 0zm28.284 28.284a11.994 11.994 0 1 1 0-16.97 12.013 12.013 0 0 1 .001 16.971z"></path><path d="m404 215.987a27.987 27.987 0 1 0 -19.8-8.188 27.917 27.917 0 0 0 19.8 8.188zm-8.485-36.472a12 12 0 1 1 0 16.97 11.959 11.959 0 0 1 0-16.97z"></path><path d="m384.2 236.77a28 28 0 1 0 39.6 0 27.816 27.816 0 0 0 -39.6 0zm28.284 28.284a12 12 0 1 1 3.516-8.486 12.013 12.013 0 0 1 -3.515 8.486z"></path><circle cx="224" cy="238" r="8"></circle><circle cx="255.796" cy="238" r="10"></circle><circle cx="288.592" cy="238" r="8"></circle><path d="m286 87.576a8 8 0 1 0 11.922-10.671 55.992 55.992 0 0 0 -83.166-.335 8 8 0 1 0 11.844 10.765 39.993 39.993 0 0 1 59.4.241z"></path><path d="m202.918 65.811a71.989 71.989 0 0 1 108.582 2.344 8 8 0 1 0 12.287-10.249 87.991 87.991 0 0 0 -132.709-2.862 8 8 0 0 0 11.836 10.767z"></path><path d="m256.2 90.241a24.046 24.046 0 0 0 -17.743 7.866 8 8 0 0 0 11.836 10.767 7.9 7.9 0 0 1 5.907-2.633 7.986 7.986 0 0 1 6.146 2.884 8 8 0 1 0 12.286-10.25 23.946 23.946 0 0 0 -18.432-8.634z"></path><path d="m204 296a28 28 0 1 0 28 28 28.032 28.032 0 0 0 -28-28zm0 40a12 12 0 1 1 12-12 12.013 12.013 0 0 1 -12 12z"></path></g></svg>