<!-- icon666.com - MILLIONS vector ICONS FREE --><svg xmlns="http://www.w3.org/2000/svg" viewBox="0 0 512 512"><g id="outline"><path d="M355.671,248.1A8,8,0,0,0,349,257.229c3.262,20.967,5.832,42.315,7.639,63.453A8,8,0,0,0,364.6,328c.227,0,.458-.009.69-.029a8,8,0,0,0,7.289-8.653c-1.838-21.5-4.452-43.219-7.769-64.547A8,8,0,0,0,355.671,248.1Z"></path><path d="M340.313,209.64c1.1,5.265,2.173,10.6,3.18,15.864a8,8,0,0,0,15.715-3.008c-1.024-5.351-2.112-10.78-3.234-16.136a8,8,0,0,0-15.661,3.28Z"></path><path d="M436,96H359.633A88.118,88.118,0,0,0,272,16H240a88.118,88.118,0,0,0-87.633,80H109.6a16,16,0,0,0-13.987,23.77l33.4,60.115a7.933,7.933,0,0,0,.711,1.054A940.212,940.212,0,0,0,104,399.567V488a8,8,0,0,0,8,8h24a8,8,0,0,0,5.657-2.343L155.313,480H356.687l13.656,13.657A8,8,0,0,0,376,496h24a8,8,0,0,0,8-8V399.567A940.058,940.058,0,0,0,377.025,160H430a10.011,10.011,0,0,1,10,10v86a32,32,0,0,0,64,0V164A68.077,68.077,0,0,0,436,96ZM240,32h32a72.108,72.108,0,0,1,71.559,64H168.441A72.108,72.108,0,0,1,240,32ZM109.6,112h39.376q-7.4,23.07-13.585,46.425ZM392,480H379.313l-13.656-13.657A8,8,0,0,0,360,464H152a8,8,0,0,0-5.657,2.343L132.687,480H120V448H392Zm0-48H120V399.567A924.219,924.219,0,0,1,165.783,112H346.217A924.219,924.219,0,0,1,392,399.567Zm96-176a16,16,0,0,1-32,0V170a26.029,26.029,0,0,0-26-26H372.664q-4.532-16.067-9.636-32H436a52.059,52.059,0,0,1,52,52Z"></path><circle cx="256" cy="223.408" r="8"></circle><circle cx="256" cy="255.204" r="10"></circle><circle cx="256" cy="288" r="8"></circle><path d="M256,328a32,32,0,1,0,32,32A32.036,32.036,0,0,0,256,328Zm0,48a16,16,0,1,1,16-16A16.019,16.019,0,0,1,256,376Z"></path></g></svg>