<!-- icon666.com - MILLIONS vector ICONS FREE --><svg version="1.1" id="Layer_1" xmlns="http://www.w3.org/2000/svg" xmlns:xlink="http://www.w3.org/1999/xlink" x="0px" y="0px" viewBox="0 0 512 512" style="enable-background:new 0 0 512 512;" xml:space="preserve"><g><g><g><path d="M74.809,408.952c-5.884,0-10.671,4.787-10.671,10.671c0,5.884,4.787,10.671,10.671,10.671s10.671-4.787,10.671-10.671 C85.48,413.739,80.693,408.952,74.809,408.952z"></path><path d="M453.309,360.932c-0.842,0-1.677,0.029-2.511,0.064L382.294,62.6c-1.113-4.848-5.426-8.284-10.4-8.284h-19.86v-9.959 c0-5.893-4.779-10.671-10.671-10.671H272c-5.893,0-10.671,4.779-10.671,10.671v42.684c0,5.893,4.779,10.671,10.671,10.671h69.362 c5.893,0,10.671-4.779,10.671-10.671V75.658h11.36l36.725,159.965L272.154,410.019h-96.476 c-2.172-23.479-12.32-45.214-29.186-62.079c-19.119-19.119-44.577-29.65-71.683-29.65s-52.563,10.53-71.683,29.65 C1.125,349.942,0,352.656,0,355.486c0,2.83,1.125,5.544,3.126,7.546l23.349,23.349c-6.525,9.458-10.357,20.909-10.357,33.243 c0,32.362,26.329,58.691,58.691,58.691c1.601,0,91.488,0,91.488,0c5.894,0,10.671-4.779,10.671-10.671 c0-5.893-4.777-10.671-10.671-10.671h-46.249c6.017-7.276,10.316-16.022,12.271-25.611h197.958c3.364,0,6.531-1.586,8.545-4.28 l80.533-107.673l10.643,46.363c-20.796,9.037-35.38,29.769-35.38,53.851c0,14.177,5.053,27.194,13.451,37.349h-20.388 c-5.893,0-10.671,4.779-10.671,10.671c0,5.893,4.779,10.671,10.671,10.671c0,0,67.085-0.02,67.375-0.045 C486.611,477.34,512,451.4,512,419.623C512,387.261,485.671,360.932,453.309,360.932z M330.691,76.37h-48.02V55.028h48.02V76.37z M74.809,456.972c-20.594,0-37.349-16.755-37.349-37.349s16.755-37.349,37.349-37.349s37.349,16.755,37.349,37.349 S95.403,456.972,74.809,456.972z M132.701,410.02v-0.001c-4.598-27.808-28.801-49.087-57.892-49.087 c-12.334,0-23.785,3.833-33.243,10.358l-15.307-15.306c13.862-10.607,30.754-16.351,48.549-16.351 c21.405,0,41.503,8.31,56.592,23.4c12.823,12.823,20.729,29.22,22.82,46.987H132.701z M324.932,410.019h-26.306l107.801-146.917 l6.667,29.044L324.932,410.019z M453.309,456.972c-20.594,0-37.349-16.755-37.349-37.349c0-13.904,7.644-26.05,18.944-32.48 l8.004,34.867c1.134,4.941,5.529,8.286,10.391,8.286c0.79,0,1.593-0.089,2.397-0.273c5.744-1.318,9.332-7.044,8.013-12.787 l-8.007-34.876c19.482,1.239,34.955,17.475,34.955,37.263C490.658,440.218,473.903,456.972,453.309,456.972z"></path></g></g></g></svg>