<!-- icon666.com - MILLIONS vector ICONS FREE --><svg xmlns="http://www.w3.org/2000/svg" viewBox="0 0 512 512"><g id="outline"><path d="M348.76,16.4h-.015L168.018,16H168a8,8,0,0,0-8,8V88a8,8,0,0,0,8,8h8v40a8,8,0,0,0,8,8v12.5a89.8,89.8,0,0,1-29.683,66.648A152.223,152.223,0,0,0,104,336.132v2.286a152,152,0,0,0,304,0v-2.286a152.223,152.223,0,0,0-50.317-112.981,89.869,89.869,0,0,1-19.3-24.779q4.479.444,9.074.45A91.666,91.666,0,0,0,412.646,43.178,88.715,88.715,0,0,0,348.76,16.4ZM176,32.018l120.865.269a94.539,94.539,0,0,0-13.21,10.771A90.991,90.991,0,0,0,260.6,80H176ZM306.27,288.6l30.91,34.772A17.2,17.2,0,0,1,324.323,352H312a8,8,0,0,0-7.155,4.422L292.8,380.512a6.31,6.31,0,0,1-11.289-5.641L292.8,352.283a22.311,22.311,0,0,0-39.909-19.958l-24.1,48.189a6.309,6.309,0,0,1-11.287-5.64l11.293-22.59a22.311,22.311,0,0,0-39.914-19.951l-9.412,18.824a12.47,12.47,0,0,1-7.6-8.62,24.153,24.153,0,0,1,5.382-21.917L205.731,288.6A103.9,103.9,0,0,0,232,219.5V144h31.826a91.47,91.47,0,0,0,16.6,25.4L280,219.5A103.9,103.9,0,0,0,306.27,288.6ZM257,96a90.222,90.222,0,0,0-.752,11.612,91.163,91.163,0,0,0,2.3,20.388H238.948l7.708-11.562a8,8,0,1,0-13.312-8.876L219.719,128H206.948l7.708-11.562a8,8,0,1,0-13.312-8.876L192,121.578V96Zm89.983,139.044A136.2,136.2,0,0,1,392,336.132v2.286a136,136,0,0,1-272,0v-2.286a136.2,136.2,0,0,1,45.021-101.088A105.824,105.824,0,0,0,200,156.5V144h16v75.5a87.913,87.913,0,0,1-22.228,58.464L165.305,309.99a40.145,40.145,0,0,0-8.947,36.427A28.451,28.451,0,0,0,184,368a8,8,0,0,0,7.155-4.422l12.046-24.09a6.312,6.312,0,0,1,11.292,5.642L203.2,367.72a22.308,22.308,0,0,0,39.908,19.95l24.1-48.19a6.31,6.31,0,0,1,11.286,5.649L267.2,367.716a22.31,22.31,0,0,0,39.911,19.952L316.944,368h7.379a33.2,33.2,0,0,0,24.815-55.262l-30.91-34.772A87.875,87.875,0,0,1,296,219.569l.311-36.472a90.957,90.957,0,0,0,22.679,11.172A105.917,105.917,0,0,0,346.979,235.044Zm.476-52.222a75.3,75.3,0,0,1-75.211-75.21A73.935,73.935,0,0,1,294.85,54.489,76.628,76.628,0,0,1,348.727,32.4,72.837,72.837,0,0,1,401.212,54.37a75.666,75.666,0,0,1-53.757,128.452Z"></path><path d="M347.649,99.612a56.133,56.133,0,0,0-41.435,18.329,8,8,0,0,0,11.836,10.766,39.992,39.992,0,0,1,59.409.241,8,8,0,0,0,11.922-10.672A56.082,56.082,0,0,0,347.649,99.612Z"></path><path d="M282.537,96.416a8,8,0,0,0,11.836,10.766c13.424-14.758,33.816-23.57,54.549-23.57,20.9,0,40.1,9.2,54.037,25.915a8,8,0,1,0,12.286-10.25c-17.035-20.42-40.589-31.665-66.323-31.665C323.759,67.612,298.942,78.38,282.537,96.416Z"></path><path d="M347.649,131.612a24.044,24.044,0,0,0-17.743,7.867,8,8,0,0,0,11.836,10.766,7.9,7.9,0,0,1,5.907-2.633A7.986,7.986,0,0,1,353.8,150.5a8,8,0,1,0,12.287-10.248A23.945,23.945,0,0,0,347.649,131.612Z"></path><path d="M349.872,400.962a8,8,0,0,0-11.2,1.6c-1.836,2.448-3.8,4.836-5.848,7.1a8,8,0,0,0,11.869,10.729c2.37-2.622,4.651-5.39,6.779-8.226A8,8,0,0,0,349.872,400.962Z"></path><path d="M315.152,425.124a100.672,100.672,0,0,1-17.036,9.42l-6.363,2.752a8,8,0,1,0,6.351,14.685l6.363-2.752a116.856,116.856,0,0,0,19.746-10.917,8,8,0,0,0-9.061-13.188Z"></path></g></svg>