<!-- icon666.com - MILLIONS vector ICONS FREE --><svg xmlns="http://www.w3.org/2000/svg" viewBox="0 0 512 512"><g id="outline"><path d="M192,224h32a24,24,0,0,0,0-48H192a24,24,0,0,0,0,48Zm40-24a8.009,8.009,0,0,1-8,8h-9.376a23.944,23.944,0,0,0,0-16H224A8.009,8.009,0,0,1,232,200Zm-40-8a8,8,0,1,1-8,8A8.009,8.009,0,0,1,192,192Z"></path><path d="M417.94,144.239s-32.357-8.077-32.452-8.095C384.988,136.042,224,136,224,136V104H336a32,32,0,0,0,0-64H288V24a8,8,0,0,0-8-8H248a8,8,0,0,0-8,8V40H224V24a8,8,0,0,0-8-8H184a8,8,0,0,0-8,8V40h-8a24.028,24.028,0,0,0-24,24v72s-17.867.221-17.94.239A50.172,50.172,0,0,0,88,184.984v30.032a50.172,50.172,0,0,0,38.06,48.745c.036.009.072.011.108.02.225.053,41.832.219,41.832.219v40a8,8,0,0,0,8,8h16v75.056l-16.522,8.26A27.853,27.853,0,0,0,160,420.36V461.3a27.944,27.944,0,0,0,12.469,23.3l15.093,10.062A8.005,8.005,0,0,0,192,496h16a8.005,8.005,0,0,0,4.438-1.344l15.093-10.062A27.944,27.944,0,0,0,240,461.3V420.36a27.852,27.852,0,0,0-15.479-25.044L208,387.056V312h16a8,8,0,0,0,8-8V264s152.651-.026,152.9-.053c.083-.01,33.043-8.186,33.043-8.186A8,8,0,0,0,424,248V152A8,8,0,0,0,417.94,144.239Zm-236.6,327.042A11.978,11.978,0,0,1,176,461.3V420.36a11.937,11.937,0,0,1,6.633-10.733L192,404.944v73.441ZM224,420.36V461.3a11.978,11.978,0,0,1-5.344,9.985L208,478.385V404.944l9.366,4.683A11.936,11.936,0,0,1,224,420.36ZM256,32h16v8H256Zm-64,0h16v8H192ZM160,64a8.009,8.009,0,0,1,8-8H336a16,16,0,0,1,0,32H216a8,8,0,0,0-8,8v40H160ZM104,215.016V184.984A34.192,34.192,0,0,1,120,156v88A34.192,34.192,0,0,1,104,215.016ZM216,296H184V264h32Zm160-48H136V152H376Zm32-6.246-16,4V154.246l16,4Z"></path><circle cx="336" cy="200" r="8"></circle><circle cx="304" cy="200" r="8"></circle><circle cx="272" cy="200" r="8"></circle><path d="M138.343,386.343A35.082,35.082,0,0,0,128,411.313V416a8,8,0,0,0,16,0v-4.687a19.185,19.185,0,0,1,5.657-13.656,8,8,0,1,0-11.314-11.314Z"></path><path d="M136,440a8,8,0,0,0-8,8v8a8,8,0,0,0,16,0v-8A8,8,0,0,0,136,440Z"></path><path d="M250.343,386.343a8,8,0,0,0,0,11.314A19.185,19.185,0,0,1,256,411.313V416a8,8,0,0,0,16,0v-4.687a35.082,35.082,0,0,0-10.343-24.97A8,8,0,0,0,250.343,386.343Z"></path><path d="M264,440a8,8,0,0,0-8,8v8a8,8,0,0,0,16,0v-8A8,8,0,0,0,264,440Z"></path></g></svg>