<!-- icon666.com - MILLIONS vector ICONS FREE --><svg xmlns="http://www.w3.org/2000/svg" viewBox="0 0 512 512"><g id="outline"><path d="M475.094,66.219A76.691,76.691,0,0,0,411.155,32H408V24a8,8,0,0,0-16,0v8H112A56.063,56.063,0,0,0,56,88v48a56.092,56.092,0,0,0,40,53.659V206a18.022,18.022,0,0,0,16,17.882V240H100a19.975,19.975,0,0,0-12,35.962v69.2a71.184,71.184,0,0,0,7.479,31.677A70.435,70.435,0,0,0,136,412.26V432H80a24,24,0,0,0,0,48v8a8,8,0,0,0,8,8h32a8,8,0,0,0,5.657-2.343L139.313,480H397.578l21.984,14.656A8.005,8.005,0,0,0,424,496h24a8,8,0,0,0,8-8V440c0-.1-.012-.206-.016-.31,0-.12-.008-.241-.018-.361-.015-.184-.04-.364-.068-.544-.011-.072-.014-.144-.027-.216l-16.587-91.227a291.093,291.093,0,0,1,15.853-159.626l19.957-29.935A76.6,76.6,0,0,0,488,115.155v-6.31A76.6,76.6,0,0,0,475.094,66.219ZM72,136V88a40.045,40.045,0,0,1,40-40H411.155a60.724,60.724,0,0,1,50.626,27.094c1.063,1.594,2.037,3.234,2.939,4.906H440a8,8,0,0,0,0,16h30.629A60.912,60.912,0,0,1,472,108.845V112H440a8,8,0,0,0,0,16h30.629a60.508,60.508,0,0,1-5.928,16.035c-.232-.02-.465-.035-.7-.035H440a8,8,0,0,0,0,16h14.385l-10.666,16H112A40.045,40.045,0,0,1,72,136ZM337.545,249.4A183.235,183.235,0,0,1,344,297.6v7.2A181.933,181.933,0,0,1,292.629,432H264V412.26a70.437,70.437,0,0,0,40.521-35.415A71.192,71.192,0,0,0,312,345.167v-69.2A19.975,19.975,0,0,0,300,240H160V224h38a18.021,18.021,0,0,0,18-18V192H321.89ZM200,192v14a2,2,0,0,1-2,2H114a2,2,0,0,1-2-2V192Zm-72,32h16v16H128Zm-28,32H300a4,4,0,0,1,0,8H100a4,4,0,0,1,0-8Zm9.789,113.688A55.109,55.109,0,0,1,104,345.167V280H296v65.167a55.117,55.117,0,0,1-5.789,24.522A54.532,54.532,0,0,1,241.167,400H158.833A54.531,54.531,0,0,1,109.789,369.688ZM152,416h96v16H152Zm288,64H426.422l-21.984-14.656A8.005,8.005,0,0,0,400,464H136a8,8,0,0,0-5.657,2.343L116.687,480H96v-8a8,8,0,0,0-8-8H80a8,8,0,0,1,0-16H440ZM423.542,350.2,438.414,432h-124.3A199.3,199.3,0,0,0,360,304.8v-7.2a199.162,199.162,0,0,0-7.02-52.411L338.474,192h97.95A307.039,307.039,0,0,0,423.542,350.2Z"></path><path d="M248.006,376a7.97,7.97,0,0,0,3.572-.847A36.744,36.744,0,0,0,272,342.111V336a8,8,0,0,0-16,0v6.111a20.833,20.833,0,0,1-11.578,18.734A8,8,0,0,0,248.006,376Z"></path><path d="M264,320a8,8,0,0,0,8-8v-8a8,8,0,0,0-16,0v8A8,8,0,0,0,264,320Z"></path><path d="M376,144a32,32,0,1,0-32-32A32.036,32.036,0,0,0,376,144Zm0-48a16,16,0,1,1-16,16A16.019,16.019,0,0,1,376,96Z"></path><path d="M296,144a32,32,0,1,0-32-32A32.036,32.036,0,0,0,296,144Zm0-48a16,16,0,1,1-16,16A16.019,16.019,0,0,1,296,96Z"></path><path d="M128,80a8,8,0,0,0-8-8H104a8,8,0,0,0,0,16h16A8,8,0,0,0,128,80Z"></path><path d="M152,88h40a8,8,0,0,0,0-16H152a8,8,0,0,0,0,16Z"></path></g></svg>