<!-- icon666.com - MILLIONS vector ICONS FREE --><svg xmlns="http://www.w3.org/2000/svg" viewBox="0 0 512 512"><g id="outline"><path d="M487.761,150.06A8,8,0,0,0,480,144H366.246l-4.212-16.851A19.971,19.971,0,0,0,342.631,112H328V72a16.019,16.019,0,0,0-16-16H136a16.019,16.019,0,0,0-16,16v40H105.369a19.971,19.971,0,0,0-19.4,15.149L81.754,144H32a8,8,0,0,0-7.761,6.06S16,183.388,16,184V328a24.028,24.028,0,0,0,24,24H86.556L72.109,438.685A8,8,0,0,0,80,448H352a8,8,0,0,0,7.891-9.315L345.444,352H472a24.028,24.028,0,0,0,24-24V240s-.02-56.594-.052-56.886C496.055,183.277,487.761,150.06,487.761,150.06ZM342.631,128a3.994,3.994,0,0,1,3.88,3.03L349.754,144H328V128ZM136,72H312v72H136Zm-34.511,59.03a3.994,3.994,0,0,1,3.88-3.03H120v16H98.246ZM473.754,160l4,16H34.246l4-16ZM32,328V192H480v40H328a8,8,0,0,0-8,8v34.707A27.838,27.838,0,0,0,308,272H124a28.032,28.032,0,0,0-28,28v36H40A8.009,8.009,0,0,1,32,328Zm276.11,8-4.219-25.315A8,8,0,0,0,296,304H136a8,8,0,0,0-7.891,6.685L123.89,336H112V300a12.013,12.013,0,0,1,12-12H308a12.013,12.013,0,0,1,12,12v36ZM142.777,320H289.223l13.333,80H129.444ZM342.556,432H89.444l13.333-80h18.446l-9.114,54.685A8,8,0,0,0,120,416H312a8,8,0,0,0,7.891-9.315L310.777,352h18.446ZM432,280h16v16H432Zm-16,24H400V280h16Zm-32-8H368V280h16Zm-16,16h16v24H368Zm32,8h16v16H400Zm32,16V312h16v24Zm48-8a8.009,8.009,0,0,1-8,8h-8V272a8,8,0,0,0-8-8H360a8,8,0,0,0-8,8v64H336V248H480Z"></path><path d="M104,256a24,24,0,1,0-24-24A24.027,24.027,0,0,0,104,256Zm0-32a8,8,0,1,1-8,8A8.009,8.009,0,0,1,104,224Z"></path><path d="M168,256a24,24,0,1,0-24-24A24.027,24.027,0,0,0,168,256Zm0-32a8,8,0,1,1-8,8A8.009,8.009,0,0,1,168,224Z"></path><path d="M232,256a24,24,0,1,0-24-24A24.027,24.027,0,0,0,232,256Zm0-32a8,8,0,1,1-8,8A8.009,8.009,0,0,1,232,224Z"></path><path d="M272,368H160a8,8,0,0,0,0,16H272a8,8,0,0,0,0-16Z"></path><path d="M272,336H160a8,8,0,0,0,0,16H272a8,8,0,0,0,0-16Z"></path></g></svg>