<!-- icon666.com - MILLIONS vector ICONS FREE --><svg xmlns="http://www.w3.org/2000/svg" viewBox="0 0 512 512"><g id="outline"><path d="M458,152H160.236L415,74.3a24,24,0,0,0-14-45.912L98.542,120.634a36.435,36.435,0,0,0-4.331,1.461A24.03,24.03,0,0,0,80,144v8H54a38.043,38.043,0,0,0-38,38V458a38.043,38.043,0,0,0,38,38H458a38.043,38.043,0,0,0,38-38V190A38.043,38.043,0,0,0,458,152ZM405.662,43.69A8,8,0,0,1,410.33,59L128,145.1V144a23.866,23.866,0,0,0-4.667-14.2ZM96,144a8.008,8.008,0,0,1,4.8-7.328l1.75-.534A7.971,7.971,0,0,1,112,144v8H96ZM480,458a22.025,22.025,0,0,1-22,22H54a22.025,22.025,0,0,1-22-22V190a22.025,22.025,0,0,1,22-22H458a22.025,22.025,0,0,1,22,22Z"></path><path d="M448,184H64a16.019,16.019,0,0,0-16,16V376a16.019,16.019,0,0,0,16,16H448a16.019,16.019,0,0,0,16-16V200A16.019,16.019,0,0,0,448,184Zm0,192H64V200H448l.01,176Z"></path><path d="M80,400a32,32,0,1,0,32,32A32.036,32.036,0,0,0,80,400ZM64,432a16,16,0,0,1,8-13.835v27.67A16,16,0,0,1,64,432Zm24,13.835v-27.67a15.963,15.963,0,0,1,0,27.67Z"></path><path d="M432,400a32,32,0,1,0,32,32A32.036,32.036,0,0,0,432,400Zm0,16a16,16,0,0,1,13.835,8h-27.67A16,16,0,0,1,432,416Zm0,32a16,16,0,0,1-13.835-8h27.67A16,16,0,0,1,432,448Z"></path><path d="M384,408H128a8,8,0,0,0-8,8v32a8,8,0,0,0,8,8H384a8,8,0,0,0,8-8V416A8,8,0,0,0,384,408ZM200,424h16v16H200Zm-16,16H168V424h16Zm48-16h16v16H232Zm32,0h16v16H264Zm32,0h16v16H296Zm32,0h16v16H328Zm-192,0h16v16H136Zm240,16H360V424h16Z"></path><circle cx="96" cy="320" r="8"></circle><circle cx="96" cy="288" r="8"></circle><circle cx="96" cy="256" r="8"></circle><circle cx="96" cy="224" r="8"></circle><circle cx="128" cy="320" r="8"></circle><circle cx="128" cy="288" r="8"></circle><circle cx="128" cy="256" r="8"></circle><circle cx="128" cy="224" r="8"></circle><circle cx="160" cy="320" r="8"></circle><circle cx="160" cy="288" r="8"></circle><circle cx="160" cy="256" r="8"></circle><circle cx="160" cy="224" r="8"></circle><circle cx="192" cy="320" r="8"></circle><circle cx="192" cy="288" r="8"></circle><circle cx="192" cy="256" r="8"></circle><circle cx="192" cy="224" r="8"></circle><circle cx="224" cy="320" r="8"></circle><circle cx="224" cy="288" r="8"></circle><circle cx="224" cy="256" r="8"></circle><circle cx="224" cy="224" r="8"></circle><circle cx="256" cy="320" r="8"></circle><circle cx="256" cy="352" r="8"></circle><circle cx="256" cy="288" r="8"></circle><circle cx="256" cy="256" r="8"></circle><circle cx="256" cy="224" r="8"></circle><circle cx="288" cy="320" r="8"></circle><circle cx="288" cy="288" r="8"></circle><circle cx="288" cy="256" r="8"></circle><circle cx="288" cy="224" r="8"></circle><circle cx="320" cy="320" r="8"></circle><circle cx="320" cy="288" r="8"></circle><circle cx="320" cy="256" r="8"></circle><circle cx="320" cy="224" r="8"></circle><circle cx="352" cy="320" r="8"></circle><circle cx="352" cy="288" r="8"></circle><circle cx="352" cy="256" r="8"></circle><circle cx="352" cy="224" r="8"></circle><circle cx="384" cy="320" r="8"></circle><circle cx="384" cy="288" r="8"></circle><circle cx="384" cy="256" r="8"></circle><circle cx="384" cy="224" r="8"></circle><circle cx="416" cy="320" r="8"></circle><circle cx="96" cy="352" r="8"></circle><circle cx="128" cy="352" r="8"></circle><circle cx="160" cy="352" r="8"></circle><circle cx="192" cy="352" r="8"></circle><circle cx="224" cy="352" r="8"></circle><circle cx="288" cy="352" r="8"></circle><circle cx="320" cy="352" r="8"></circle><circle cx="352" cy="352" r="8"></circle><circle cx="384" cy="352" r="8"></circle><circle cx="416" cy="352" r="8"></circle><circle cx="416" cy="288" r="8"></circle><circle cx="416" cy="256" r="8"></circle><circle cx="416" cy="224" r="8"></circle></g></svg>