<!-- icon666.com - MILLIONS vector ICONS FREE --><svg viewBox="0 0 512 512" xmlns="http://www.w3.org/2000/svg"><g id="outline"><path d="m346 16h-180a30.034 30.034 0 0 0 -30 30v434a16.019 16.019 0 0 0 16 16h208a16.019 16.019 0 0 0 16-16v-434a30.034 30.034 0 0 0 -30-30zm-194 176h208v224h-208zm14-160h180a14.015 14.015 0 0 1 14 14v130h-208v-130a14.015 14.015 0 0 1 14-14zm194 448h-208v-48h208l.009 48z"></path><path d="m176 160h32a8 8 0 0 0 0-16h-32a8 8 0 0 0 0 16z"></path><path d="m208 208h-32a8 8 0 0 0 0 16h32a8 8 0 0 0 0-16z"></path><path d="m336 448h-160a8 8 0 0 0 0 16h160a8 8 0 0 0 0-16z"></path></g></svg>