<!-- icon666.com - MILLIONS vector ICONS FREE --><svg xmlns="http://www.w3.org/2000/svg" viewBox="0 0 512 512"><g id="outline"><path d="M421,81.753A154.585,154.585,0,0,0,324.775,48H187.225A154.585,154.585,0,0,0,91,81.753,8,8,0,0,0,88,88v16a8,8,0,0,0,8,8H416a8,8,0,0,0,8-8V88A8,8,0,0,0,421,81.753ZM224,96V88h64v8Zm184,0H304V80a8,8,0,0,0-8-8H216a8,8,0,0,0-8,8V96H104V91.913A138.57,138.57,0,0,1,187.225,64h137.55A138.57,138.57,0,0,1,408,91.913Z"></path><path d="M478.312,82.211l-17.585-8.792A199.2,199.2,0,0,0,320.8,16H191.2A199.2,199.2,0,0,0,51.273,73.419L33.688,82.211A31.827,31.827,0,0,0,16,110.833v95.278a23.87,23.87,0,0,0,13.267,21.467L48,236.944V450a22.033,22.033,0,0,0,16,21.161V488a8,8,0,0,0,8,8h32a8,8,0,0,0,8-8V472H400v16a8,8,0,0,0,8,8h32a8,8,0,0,0,8-8V471.161A22.033,22.033,0,0,0,464,450V236.944l18.733-9.366A23.87,23.87,0,0,0,496,206.111V110.833A31.827,31.827,0,0,0,478.312,82.211ZM448,232V424H64V192H184V312a72,72,0,0,0,144,0V192H448ZM200,192H312V312a56,56,0,0,1-112,0ZM32,176V144H480v32Zm0-65.167a15.912,15.912,0,0,1,8.845-14.311l18.733-9.367a7.986,7.986,0,0,0,2.079-1.5A182,182,0,0,1,191.2,32H320.8A182,182,0,0,1,450.343,85.657a7.986,7.986,0,0,0,2.079,1.5l18.733,9.367A15.912,15.912,0,0,1,480,110.833V128H32Zm4.423,102.434A7.956,7.956,0,0,1,32,206.111V192H48v27.056ZM96,480H80v-8H96Zm336,0H416v-8h16Zm16-30a6.006,6.006,0,0,1-6,6H70a6.006,6.006,0,0,1-6-6V440H448Zm32-243.889a7.956,7.956,0,0,1-4.423,7.156L464,219.056V192h16Z"></path><path d="M88,320a8,8,0,0,0-8,8v8a8,8,0,0,0,16,0v-8A8,8,0,0,0,88,320Z"></path><path d="M88,360a8,8,0,0,0-8,8v32a8,8,0,0,0,16,0V368A8,8,0,0,0,88,360Z"></path><path d="M256,272a32,32,0,1,0-32-32A32.036,32.036,0,0,0,256,272Zm0-48a16,16,0,1,1-16,16A16.019,16.019,0,0,1,256,224Z"></path><path d="M256,352a32,32,0,1,0-32-32A32.036,32.036,0,0,0,256,352Zm0-48a16,16,0,1,1-16,16A16.019,16.019,0,0,1,256,304Z"></path></g></svg>