<!-- icon666.com - MILLIONS vector ICONS FREE --><svg version="1.1" id="Capa_1" xmlns="http://www.w3.org/2000/svg" xmlns:xlink="http://www.w3.org/1999/xlink" x="0px" y="0px" viewBox="0 0 512 512" style="enable-background:new 0 0 512 512;" xml:space="preserve"><g><g><g><path d="M487.953,268.519v-19.641l-36.467-36.466h-34.68v152.295h-97.18v-40.078h-32.063V179.357h16.527v-15.038h-16.527v-17.025 h16.527v-15.038h-16.527v-19.333l62.353-23.383l2.549-6.371H382.1l8.017-32.062h18.176V36.07H103.705v15.038h18.175l8.016,32.062 h29.635l2.549,6.371l62.352,23.383v19.333h-16.527v15.038h16.527v17.025h-16.527v15.038h16.527v24.543h15.038v-24.543h33.056 v145.273h-33.056v-96.682h-15.038v96.682h-32.06v40.078h-97.18V212.412h-34.68l-36.466,36.466v19.642H0v31.566h15.038v-16.529 h9.009V303.2l36.466,36.467h19.642v101.584l-19.642,19.642H15.038v-17.025H39.58v-15.038H15.038v-17.025h48.59v-15.038h-48.59 v-17.024H39.58v-15.038H15.038v-40.576H0V475.93h66.742l28.451-28.451v-27.657h105.195v24.046h111.224v-24.046h32.559v-15.038 h-47.596v24.046h-81.149v-9.009h64.621v-15.038H95.193v-25.04h321.614v25.04H368.22v15.038h48.587v27.657l28.451,28.451H512 V268.519H487.953z M80.155,324.629H66.742l-27.657-27.657v-41.865l17.024-17.024v37.956h15.038v-48.59h9.009v48.59h0.001V324.629 z M187.919,83.17h44.034V68.133h-90.316l-4.256-17.025h237.236l-4.256,17.025h-28.075l-3.864,9.659l-65.895,24.711v29.754 h-33.056v-29.754L187.919,83.17z M239.472,164.319v-17.025h33.056v17.025H239.472z M304.59,364.707L304.59,364.707h-97.18v-25.04 h97.18V364.707z M431.844,276.039h0.001v-48.59h9.009v48.59h15.038v-37.956l17.024,17.024v41.865l-27.657,27.657h-13.414V276.039 z M496.962,364.707H472.42v15.038h24.543v17.024h-48.59v15.038h48.59v17.025H472.42v15.038h24.543v17.025h-45.475l-19.642-19.642 v-21.429v-55.115v-25.04h19.642l36.467-36.467v-19.642h9.009V364.707z"></path><rect x="47.599" y="364.706" width="16.03" height="15.038"></rect><rect x="47.599" y="428.827" width="16.03" height="15.038"></rect><rect x="448.375" y="364.706" width="16.031" height="15.038"></rect><rect x="448.375" y="428.827" width="16.031" height="15.038"></rect><rect x="247.982" y="68.133" width="16.03" height="15.038"></rect><rect x="280.043" y="68.133" width="16.03" height="15.038"></rect></g></g></g></svg>