<!-- icon666.com - MILLIONS vector ICONS FREE --><svg xmlns="http://www.w3.org/2000/svg" viewBox="0 0 512 512"><g id="outline"><path d="M184,150.059a89.314,89.314,0,0,0,24.994,62.219l5.853,17.561-8.213,8.213a48.163,48.163,0,0,0-14.03,35.6L198.351,440.3a57.683,57.683,0,0,0,115.3,0L319.4,273.647a48.163,48.163,0,0,0-14.03-35.595l-8.213-8.213,5.853-17.561A89.314,89.314,0,0,0,328,150.059V123.2c0-15.253-17.57-27.2-40-27.2-13.227,0-24.76,4.157-32,10.694C248.759,100.157,237.227,96,224,96c-22.43,0-40,11.947-40,27.2ZM303.406,273.1l-5.747,166.656a41.684,41.684,0,0,1-83.318,0L208.594,273.1a32.112,32.112,0,0,1,9.354-23.731L227.313,240h57.374l9.365,9.366A32.112,32.112,0,0,1,303.406,273.1Zm-13.063-70.754a8,8,0,0,0-1.932,3.127L282.234,224H229.766l-6.177-18.53a8,8,0,0,0-1.932-3.127A73.453,73.453,0,0,1,200,150.059V145.1a50.586,50.586,0,0,0,16.126,4.789A19.654,19.654,0,0,0,216,152c0,15.253,17.57,27.2,40,27.2s40-11.947,40-27.2a19.654,19.654,0,0,0-.126-2.109A50.578,50.578,0,0,0,312,145.1v4.957A73.453,73.453,0,0,1,290.343,202.343ZM256,140.8c14.65,0,24,6.634,24,11.2s-9.35,11.2-24,11.2-24-6.634-24-11.2S241.35,140.8,256,140.8ZM288,112c14.65,0,24,6.634,24,11.2s-9.35,11.2-24,11.2c-.442,0-.878-.013-1.314-.025-5.538-4.478-13.2-7.678-22.028-8.956A4.572,4.572,0,0,1,264,123.2C264,118.634,273.35,112,288,112Zm-64,0c14.65,0,24,6.634,24,11.2a4.544,4.544,0,0,1-.647,2.218c-8.835,1.276-16.5,4.477-22.038,8.956-.439.013-.878.026-1.315.026-14.65,0-24-6.633-24-11.2S209.35,112,224,112Z"></path><path d="M256,272a23.991,23.991,0,0,0-24,24v32a24,24,0,0,0,48,0V296a23.991,23.991,0,0,0-24-24Zm8,24a8,8,0,1,1-8-8A8.009,8.009,0,0,1,264,296Zm-8,40a8.009,8.009,0,0,1-8-8v-9.376a23.944,23.944,0,0,0,16,0V328A8.009,8.009,0,0,1,256,336Z"></path><circle cx="256" cy="373.707" r="8"></circle><circle cx="256" cy="405.707" r="8"></circle><circle cx="256" cy="437.707" r="8"></circle><path d="M285.709,60.033c-2.307.69-4.765,1.3-7.3,1.819a8,8,0,1,0,3.19,15.677c3.006-.611,5.932-1.34,8.7-2.166a8,8,0,0,0-4.582-15.33Z"></path><path d="M303.723,62.172a8,8,0,0,0,11.262-1.082A20.557,20.557,0,0,0,320,48c0-5.683-2.761-16.4-21.251-24.324C287.2,18.727,272.017,16,256,16s-31.2,2.727-42.749,7.676C194.761,31.6,192,42.317,192,48c0,11.1,9.9,20.576,26.4,26.288a8,8,0,0,0,9.178,12.867l16-8a8,8,0,0,0,4.4-7.717,7.976,7.976,0,0,0-2.387-6.14l-6.438-12.876a8,8,0,0,0-14.317,7.14C213.883,56.015,208,51.138,208,48c0-5.641,18.224-16,48-16s48,10.359,48,16a4.89,4.89,0,0,1-1.358,2.91A8,8,0,0,0,303.723,62.172Z"></path><path d="M330.873,375.617a8,8,0,0,0,7.5,8.469c.165.01.328.015.491.015a8,8,0,0,0,7.978-7.517l.485-8.024a8,8,0,1,0-15.971-.967Z"></path><path d="M340.8,343.96c.164.01.328.015.49.015a8,8,0,0,0,7.979-7.517l1.456-24.075a8,8,0,1,0-15.971-.967L333.3,335.491A8,8,0,0,0,340.8,343.96Z"></path></g></svg>