<!-- icon666.com - MILLIONS vector ICONS FREE --><svg viewBox="0 0 512 512" xmlns="http://www.w3.org/2000/svg"><g id="outline"><circle cx="240" cy="79.408" r="8"></circle><circle cx="240" cy="111.204" r="10"></circle><circle cx="240" cy="144" r="8"></circle><path d="m240 200a32 32 0 1 0 32 32 32.036 32.036 0 0 0 -32-32zm0 48a16 16 0 1 1 16-16 16.019 16.019 0 0 1 -16 16z"></path><path d="m240 280a32 32 0 1 0 32 32 32.036 32.036 0 0 0 -32-32zm0 48a16 16 0 1 1 16-16 16.019 16.019 0 0 1 -16 16z"></path><path d="m448 136a55.97 55.97 0 0 0 -39.676 95.478l7.676 41.261v103.261a31.86 31.86 0 0 0 8 21.132v90.868a8 8 0 0 0 8 8h32a8 8 0 0 0 8-8v-90.868a31.86 31.86 0 0 0 8-21.132v-103.244l7.859-41.259c.016-.082.021-.164.034-.246a55.965 55.965 0 0 0 -39.893-95.251zm17.38 128h-34.731l-3.749-20.139a55.85 55.85 0 0 0 42.324-.051zm-1.38 112a16 16 0 0 1 -32 0v-96h32zm-24 104v-73.013a32.1 32.1 0 0 0 16 0v73.013zm8-248a40 40 0 1 1 40-40 40.045 40.045 0 0 1 -40 40z"></path><path d="m448 184a8 8 0 0 0 8-8v-8a8 8 0 0 0 -16 0v8a8 8 0 0 0 8 8z"></path><path d="m448 200a8 8 0 0 0 -8 8v8a8 8 0 0 0 16 0v-8a8 8 0 0 0 -8-8z"></path><path d="m432 184h-8a8 8 0 0 0 0 16h8a8 8 0 0 0 0-16z"></path><path d="m464 184a8 8 0 0 0 0 16h8a8 8 0 0 0 0-16z"></path><path d="m288 496h32a8 8 0 0 0 8-8v-64a8 8 0 0 0 8-8v-25.5a34.059 34.059 0 0 0 24-32.5v-308a34.038 34.038 0 0 0 -34-34h-172a34.038 34.038 0 0 0 -34 34v308a34.059 34.059 0 0 0 24 32.5v25.5a8 8 0 0 0 8 8v64a8 8 0 0 0 8 8h32a8 8 0 0 0 8-8v-64a8 8 0 0 0 8-8v-24h64v24a8 8 0 0 0 8 8v64a8 8 0 0 0 8 8zm-152-138v-308a18.021 18.021 0 0 1 18-18h172a18.021 18.021 0 0 1 18 18v308a18.021 18.021 0 0 1 -18 18h-22v-144a64 64 0 0 0 -128 0v144h-22a18.021 18.021 0 0 1 -18-18zm56 18v-144a48 48 0 0 1 96 0v144zm-8 104h-16v-56h16zm8-72h-32v-16h32zm128-16v16h-32v-16zm-8 32v56h-16v-56z"></path></g></svg>