<!-- icon666.com - MILLIONS vector ICONS FREE --><svg xmlns="http://www.w3.org/2000/svg" viewBox="0 0 512 512"><g id="outline"><path d="M464,312V104a8,8,0,0,0-8-8H56a8,8,0,0,0-8,8V312a8,8,0,0,0,8,8H456A8,8,0,0,0,464,312Zm-16-8H64V112H448Z"></path><path d="M200,256H312a8,8,0,0,0,8-8V226.246l22.06,5.515A8,8,0,0,0,352,224V176a8,8,0,0,0-9.94-7.761L320,173.754V152a8,8,0,0,0-8-8H200a8,8,0,0,0-8,8v96A8,8,0,0,0,200,256Zm136-69.754v27.508l-16-4V190.246ZM208,160h96v80H208Z"></path><path d="M275.578,192.845l-32-16A8,8,0,0,0,232,184v32a8,8,0,0,0,11.578,7.155l32-16a8,8,0,0,0,0-14.31ZM248,203.056v-6.112L254.111,200Z"></path><circle cx="224" cy="280" r="8"></circle><circle cx="255.796" cy="280" r="10"></circle><circle cx="288.592" cy="280" r="8"></circle><path d="M24,456H56a8,8,0,0,0,8-8V424H448v24a8,8,0,0,0,8,8h32a8,8,0,0,0,8-8V384a8,8,0,0,0-8-8H469.416l-9.6-24H488a8,8,0,0,0,8-8V72a8,8,0,0,0-8-8H24a8,8,0,0,0-8,8V344a8,8,0,0,0,8,8H60.184l-9.6,24H24a8,8,0,0,0-8,8v64A8,8,0,0,0,24,456Zm428.184-80H437.416l-9.6-24h14.768Zm-294.768,0-9.6-24H372.184l-9.6,24Zm-41.6-24h14.768l9.6,24H125.416Zm-7.632,24H99.816L104,365.541Zm281.232-24h14.768l-9.6,24H379.816ZM416,365.541,420.184,376h-8.368ZM32,80H480V336H32ZM77.416,352H92.184l-9.6,24H67.816ZM32,392H480v48H464V416a8,8,0,0,0-8-8H56a8,8,0,0,0-8,8v24H32Z"></path></g></svg>