<!-- icon666.com - MILLIONS vector ICONS FREE --><svg viewBox="-109 1 511 511.999" xmlns="http://www.w3.org/2000/svg"><path d="m214.6875 154.1875h-106.359375c-4.144531 0-7.5 3.355469-7.5 7.5 0 4.140625 3.355469 7.5 7.5 7.5h98.859375v173.625h-23.292969c-4.144531 0-7.5 3.359375-7.5 7.5 0 4.144531 3.355469 7.5 7.5 7.5h30.792969c4.140625 0 7.5-3.355469 7.5-7.5v-188.625c0-4.144531-3.359375-7.5-7.5-7.5zm0 0"></path><path d="m154.015625 342.8125h-98.382813v-173.625h23.050782c4.144531 0 7.5-3.359375 7.5-7.5 0-4.144531-3.355469-7.5-7.5-7.5h-30.550782c-4.140624 0-7.5 3.355469-7.5 7.5v188.625c0 4.144531 3.359376 7.5 7.5 7.5h105.882813c4.140625 0 7.5-3.355469 7.5-7.5 0-4.140625-3.359375-7.5-7.5-7.5zm0 0"></path><path d="m193.78125 250.460938c-3.941406-15.710938-18.605469-26.683594-35.65625-26.683594-9.359375 0-18.644531 3.28125-26.714844 9.347656-8.070312-6.066406-17.355468-9.347656-26.714844-9.347656-17.054687 0-31.71875 10.972656-35.660156 26.683594-2.070312 8.25-2.210937 21.457031 8.875 37.507812 9.65625 13.980469 25.824219 27.109375 48.058594 39.019531 1.667969.894531 3.550781 1.367188 5.441406 1.367188 1.894532 0 3.777344-.472657 5.441406-1.363281 22.234376-11.914063 38.402344-25.042969 48.058594-39.023438 11.085938-16.050781 10.941406-29.253906 8.871094-37.507812zm-62.371094 62.417968c-40.53125-22.15625-51.324218-44.824218-47.828125-58.765625 2.304688-9.171875 10.789063-15.335937 21.113281-15.335937 5.320313 0 13.367188 1.664062 21.472657 9.585937 2.914062 2.847657 7.570312 2.847657 10.484375 0 8.105468-7.921875 16.148437-9.585937 21.472656-9.585937 10.324219 0 18.804688 6.164062 21.105469 15.335937 5.304687 21.117188-20.925781 44.011719-47.820313 58.765625zm0 0"></path><path d="m152.457031 206.335938v-8.277344c0-4.144532-3.359375-7.5-7.5-7.5-4.144531 0-7.5 3.355468-7.5 7.5v8.277344c0 4.140624 3.355469 7.5 7.5 7.5 4.140625 0 7.5-3.359376 7.5-7.5zm0 0"></path><path d="m165.160156 213.835938c4.140625 0 7.5-3.359376 7.5-7.5v-12.292969c0-4.140625-3.359375-7.5-7.5-7.5-4.144531 0-7.5 3.359375-7.5 7.5v12.292969c0 4.140624 3.355469 7.5 7.5 7.5zm0 0"></path><path d="m192.863281 206.335938v-16.304688c0-4.144531-3.359375-7.5-7.5-7.5-4.144531 0-7.5 3.355469-7.5 7.5v16.304688c0 4.140624 3.355469 7.5 7.5 7.5 4.140625 0 7.5-3.359376 7.5-7.5zm0 0"></path><path d="m271.046875 252.527344c12.890625 0 23.378906-10.488282 23.378906-23.378906v-29.414063c0-12.894531-10.488281-23.382813-23.378906-23.382813h-8.8125c-.734375-16.394531-6.707031-31.441406-16.277344-43.523437l-15.640625-37.78125c-3.292968-7.957031-8.839844-14.46875-15.714844-18.941406-5.5-5.839844-6.554687-19.519531-7.476562-31.640625-.75-9.84375-1.523438-20.019532-4.550781-28.023438-5.148438-13.589844-15.191407-16.441406-22.710938-16.441406-.199219 0-.398437.00390625-.597656.0078125h-95.710937c-.203126-.00390625-.402344-.0078125-.597657-.0078125-7.523437 0-17.566406 2.851562-22.710937 16.441406-3.03125 8.007813-3.804688 18.183594-4.554688 28.023438-.917968 12.125-1.976562 25.800781-7.472656 31.640625-6.878906 4.472656-12.421875 10.984375-15.714844 18.941406l-15.640625 37.785156c-10.230469 12.914063-16.363281 29.21875-16.363281 46.9375v152.457031c0 17.71875 6.132812 34.027344 16.363281 46.941407l15.640625 37.785156c3.292969 7.957031 8.835938 14.46875 15.714844 18.941406 5.5 5.839844 6.554688 19.519531 7.476562 31.640625.75 9.84375 1.523438 20.019532 4.554688 28.019532 5.144531 13.589843 15.1875 16.445312 22.707031 16.445312.199219 0 .398438-.003906.597657-.007812h95.710937c.199219.003906.402344.007812.601563.007812 7.519531 0 17.5625-2.855469 22.710937-16.445312 3.03125-8.003907 3.800781-18.179688 4.550781-28.019532.921875-12.125 1.976563-25.800781 7.472656-31.640625 6.875-4.472656 12.421876-10.984375 15.714844-18.941406l15.640625-37.785156c9.570313-12.078125 15.542969-27.125 16.277344-43.519531h8.8125c12.894531 0 23.382813-10.488282 23.382813-23.382813v-29.414063c0-12.890624-10.488282-23.378906-23.382813-23.378906h-8.726563v-6.945312zm8.382813-52.792969v29.414063c0 4.621093-3.761719 8.378906-8.382813 8.378906h-8.726563v-46.175782h8.726563c4.621094 0 8.382813 3.757813 8.382813 8.382813zm-211.875-130.195313c1.84375-7.449218 2.472656-15.765624 3.09375-23.9375 1.976562-25.976562 4.941406-30.601562 12.308593-30.601562l.359375.003906h.160156 95.863282.164062l.359375-.003906c7.363281 0 10.328125 4.625 12.304688 30.601562.621093 8.171876 1.253906 16.488282 3.097656 23.9375-.496094-.039062-2.707031-.136718-3.316406-.136718h-121.078125c-.546875 0-2.824219.097656-3.316406.136718zm-21.191407 31.242188c4.019531-9.710938 13.917969-16.378906 24.507813-16.378906h121.078125c10.511719 0 20.503906 6.640625 24.507812 16.378906l4.8125 11.628906c-5.007812-2.582031-10.304687-4.589844-15.796875-6.003906-6.175781-1.585938-12.527344-2.386719-18.90625-2.386719h-110.316406c-12.003906 0-24.027344 2.886719-34.699219 8.390625 0 0 4.8125-11.625 4.8125-11.628906zm148.902344 341.683594c-1.839844 7.445312-2.472656 15.761718-3.09375 23.933594-1.976563 25.980468-4.941406 30.601562-12.308594 30.601562l-.359375-.003906c-.054687 0-.105468-.003906-.164062-.003906h-95.859375c-.054688 0-.109375.003906-.164063.003906l-.359375.003906c-7.363281 0-10.328125-4.621094-12.304687-30.601562-.625-8.171876-1.253906-16.488282-3.097656-23.933594.496093.039062 2.769531.132812 3.316406.132812h121.078125c.609375 0 2.824219-.09375 3.316406-.132812zm21.191406-31.246094c-4.039062 9.753906-13.949219 16.378906-24.507812 16.378906h-121.078125c-10.472656 0-20.589844-6.589844-24.507813-16.378906l-4.8125-11.628906c5.007813 2.582031 10.300781 4.59375 15.800781 6.003906 6.195313 1.59375 12.5 2.386719 18.902344 2.386719h110.316406c12.015626 0 24.015626-2.882813 34.699219-8.390625 0 0-4.8125 11.625-4.8125 11.628906zm30.863281-78.988281c0 32.644531-28.011718 60.75-60.75 60.75h-110.320312c-33.078125 0-60.75-27.695313-60.75-60.75v-152.460938c0-26.023437 16.449219-48.269531 39.5-56.90625 6.777344-2.539062 14.015625-3.84375 21.25-3.84375h110.316406c7.246094 0 14.46875 1.316407 21.253906 3.84375 23.046876 8.636719 39.5 30.882813 39.5 56.90625zm23.726563-57.757813c4.621094 0 8.378906 3.757813 8.378906 8.378906v29.414063c0 4.625-3.757812 8.382813-8.378906 8.382813h-8.726563v-46.175782zm0 0"></path></svg>