<!-- icon666.com - MILLIONS vector ICONS FREE --><svg xmlns="http://www.w3.org/2000/svg" viewBox="0 0 512 512"><g id="outline"><path d="M54,424h2v24a8,8,0,0,0,8,8H96a8,8,0,0,0,8-8V424H416v24a8,8,0,0,0,8,8h32a8,8,0,0,0,8-8V423.522A38.058,38.058,0,0,0,496,386V126a38.043,38.043,0,0,0-38-38H376V70a14.015,14.015,0,0,0-14-14H342a14.015,14.015,0,0,0-14,14V88H312V70a14.015,14.015,0,0,0-14-14H278a14.015,14.015,0,0,0-14,14V88H248V70a14.015,14.015,0,0,0-14-14H214a14.015,14.015,0,0,0-14,14V88H184V70a14.015,14.015,0,0,0-14-14H150a14.015,14.015,0,0,0-14,14V88H54a38.043,38.043,0,0,0-38,38V386A38.043,38.043,0,0,0,54,424Zm34,16H72V424H88Zm360,0H432V424h16ZM344,72h16V88H344Zm-64,0h16V88H280Zm-64,0h16V88H216Zm-64,0h16V88H152ZM32,126a22.025,22.025,0,0,1,22-22H458a22.025,22.025,0,0,1,22,22V386a22.025,22.025,0,0,1-22,22H54a22.025,22.025,0,0,1-22-22Z"></path><path d="M62,392H450a14.015,14.015,0,0,0,14-14V134a14.015,14.015,0,0,0-14-14H62a14.015,14.015,0,0,0-14,14V378A14.015,14.015,0,0,0,62,392Zm2-16V360H448v16ZM448,136V344H64V136Z"></path><circle cx="96" cy="256" r="8"></circle><circle cx="96" cy="224" r="8"></circle><circle cx="96" cy="192" r="8"></circle><circle cx="96" cy="160" r="8"></circle><circle cx="128" cy="256" r="8"></circle><circle cx="128" cy="224" r="8"></circle><circle cx="128" cy="192" r="8"></circle><circle cx="128" cy="160" r="8"></circle><circle cx="160" cy="256" r="8"></circle><circle cx="160" cy="224" r="8"></circle><circle cx="160" cy="192" r="8"></circle><circle cx="160" cy="160" r="8"></circle><circle cx="192" cy="256" r="8"></circle><circle cx="192" cy="224" r="8"></circle><circle cx="192" cy="192" r="8"></circle><circle cx="192" cy="160" r="8"></circle><circle cx="224" cy="256" r="8"></circle><circle cx="224" cy="224" r="8"></circle><circle cx="224" cy="192" r="8"></circle><circle cx="224" cy="160" r="8"></circle><circle cx="256" cy="256" r="8"></circle><circle cx="256" cy="288" r="8"></circle><circle cx="256" cy="224" r="8"></circle><circle cx="256" cy="192" r="8"></circle><circle cx="256" cy="160" r="8"></circle><circle cx="288" cy="256" r="8"></circle><circle cx="288" cy="224" r="8"></circle><circle cx="288" cy="192" r="8"></circle><circle cx="288" cy="160" r="8"></circle><circle cx="320" cy="256" r="8"></circle><circle cx="320" cy="224" r="8"></circle><circle cx="320" cy="192" r="8"></circle><circle cx="320" cy="160" r="8"></circle><circle cx="352" cy="256" r="8"></circle><circle cx="352" cy="224" r="8"></circle><circle cx="352" cy="192" r="8"></circle><circle cx="352" cy="160" r="8"></circle><circle cx="384" cy="256" r="8"></circle><circle cx="384" cy="224" r="8"></circle><circle cx="384" cy="192" r="8"></circle><circle cx="384" cy="160" r="8"></circle><circle cx="416" cy="256" r="8"></circle><circle cx="96" cy="288" r="8"></circle><circle cx="128" cy="288" r="8"></circle><circle cx="160" cy="288" r="8"></circle><circle cx="192" cy="288" r="8"></circle><circle cx="224" cy="288" r="8"></circle><circle cx="288" cy="288" r="8"></circle><circle cx="320" cy="288" r="8"></circle><circle cx="352" cy="288" r="8"></circle><circle cx="384" cy="288" r="8"></circle><circle cx="416" cy="288" r="8"></circle><circle cx="256" cy="320" r="8"></circle><circle cx="96" cy="320" r="8"></circle><circle cx="128" cy="320" r="8"></circle><circle cx="160" cy="320" r="8"></circle><circle cx="192" cy="320" r="8"></circle><circle cx="224" cy="320" r="8"></circle><circle cx="288" cy="320" r="8"></circle><circle cx="320" cy="320" r="8"></circle><circle cx="352" cy="320" r="8"></circle><circle cx="384" cy="320" r="8"></circle><circle cx="416" cy="320" r="8"></circle><circle cx="416" cy="224" r="8"></circle><circle cx="416" cy="192" r="8"></circle><circle cx="416" cy="160" r="8"></circle></g></svg>