<!-- icon666.com - MILLIONS vector ICONS FREE --><svg id="Icons" viewBox="0 0 60 60" xmlns="http://www.w3.org/2000/svg"><path d="m40 0h-20a11.013 11.013 0 0 0 -11 11c0 7.672 3.9 11.962 7.342 15.747 2.5 2.753 4.658 5.123 4.658 8.253v19a6.006 6.006 0 0 0 6 6h6a6.006 6.006 0 0 0 6-6v-19c0-3.13 2.158-5.5 4.658-8.253 3.442-3.785 7.342-8.075 7.342-15.747a11.013 11.013 0 0 0 -11-11zm-20 2h20a9 9 0 0 1 0 18h-20a9 9 0 0 1 0-18zm22.179 23.4c-2.663 2.93-5.179 5.7-5.179 9.6v19a4 4 0 0 1 -4 4h-6a4 4 0 0 1 -4-4v-19c0-3.9-2.516-6.67-5.179-9.6a34.995 34.995 0 0 1 -4.421-5.623 10.929 10.929 0 0 0 6.6 2.223h20a10.929 10.929 0 0 0 6.6-2.223 34.995 34.995 0 0 1 -4.421 5.623z"></path><path d="m20 18h20a7 7 0 0 0 0-14h-20a7 7 0 0 0 0 14zm0-12h20a5 5 0 0 1 0 10h-20a5 5 0 0 1 0-10z"></path><path d="m30 26a4 4 0 0 0 -4 4v5c0 2.757 1.794 5 4 5s4-2.243 4-5v-5a4 4 0 0 0 -4-4zm2 9c0 1.626-.916 3-2 3s-2-1.374-2-3v-5a2 2 0 0 1 4 0z"></path><path d="m21 14a1 1 0 0 0 1-1v-4a1 1 0 0 0 -2 0v4a1 1 0 0 0 1 1z"></path><path d="m27 14a1 1 0 0 0 1-1v-4a1 1 0 0 0 -2 0v4a1 1 0 0 0 1 1z"></path><path d="m33 14a1 1 0 0 0 1-1v-4a1 1 0 0 0 -2 0v4a1 1 0 0 0 1 1z"></path><path d="m39 14a1 1 0 0 0 1-1v-4a1 1 0 0 0 -2 0v4a1 1 0 0 0 1 1z"></path></svg>