<!-- icon666.com - MILLIONS vector ICONS FREE --><svg xmlns="http://www.w3.org/2000/svg" viewBox="0 0 512 512"><g id="outline"><path d="M40,58V450a38.043,38.043,0,0,0,38,38H434a38.043,38.043,0,0,0,38-38V58a34.038,34.038,0,0,0-34-34H74A34.038,34.038,0,0,0,40,58Zm16,0A18.021,18.021,0,0,1,74,40H438a18.021,18.021,0,0,1,18,18V450a22.025,22.025,0,0,1-22,22H78a22.025,22.025,0,0,1-22-22Z"></path><path d="M256,120a32,32,0,1,0-32-32A32.036,32.036,0,0,0,256,120Zm0-48a16,16,0,1,1-16,16A16.019,16.019,0,0,1,256,72Z"></path><path d="M160,120a32,32,0,1,0-32-32A32.036,32.036,0,0,0,160,120Zm0-48a16,16,0,1,1-16,16A16.019,16.019,0,0,1,160,72Z"></path><path d="M352,120a32,32,0,1,0-32-32A32.036,32.036,0,0,0,352,120Zm0-48a16,16,0,1,1-16,16A16.019,16.019,0,0,1,352,72Z"></path><path d="M128,456H384a48.054,48.054,0,0,0,48-48V184a48.054,48.054,0,0,0-48-48H128a48.054,48.054,0,0,0-48,48V408A48.054,48.054,0,0,0,128,456ZM96,184a32.036,32.036,0,0,1,32-32H384a32.036,32.036,0,0,1,32,32V408a32.036,32.036,0,0,1-32,32H128a32.036,32.036,0,0,1-32-32Z"></path><path d="M128,424H384a16.019,16.019,0,0,0,16-16V184a16.019,16.019,0,0,0-16-16H128a16.019,16.019,0,0,0-16,16V408A16.019,16.019,0,0,0,128,424Zm0-240H384l.01,224H128Z"></path><path d="M256,296V280a8,8,0,0,0-16,0v16a8,8,0,0,1-16,0V280a8,8,0,0,0-16,0v16a24,24,0,0,0,48,0Z"></path><path d="M307.578,272.845a8,8,0,0,0-10.733,3.577L288,294.111l-8.845-17.689a8,8,0,0,0-14.31,7.156l16,32a8,8,0,0,0,14.31,0l16-32A8,8,0,0,0,307.578,272.845Z"></path><path d="M192,336H168a8,8,0,0,0,0,16h4.686l-26.343,26.343a8,8,0,0,0,11.314,11.314L184,363.314V368a8,8,0,0,0,16,0V344A8,8,0,0,0,192,336Z"></path><path d="M192,216a8,8,0,0,0-8,8v4.686l-26.343-26.343a8,8,0,0,0-11.314,11.314L172.686,240H168a8,8,0,0,0,0,16h24a8,8,0,0,0,8-8V224A8,8,0,0,0,192,216Z"></path><path d="M339.314,352H344a8,8,0,0,0,0-16H320a8,8,0,0,0-8,8v24a8,8,0,0,0,16,0v-4.686l26.343,26.343a8,8,0,0,0,11.314-11.314Z"></path><path d="M354.343,202.343,328,228.686V224a8,8,0,0,0-16,0v24a8,8,0,0,0,8,8h24a8,8,0,0,0,0-16h-4.686l26.343-26.343a8,8,0,0,0-11.314-11.314Z"></path><circle cx="256" cy="344" r="8"></circle><circle cx="280" cy="376" r="8"></circle><circle cx="232" cy="376" r="8"></circle><circle cx="256" cy="240" r="8"></circle><circle cx="280" cy="208" r="8"></circle><circle cx="232" cy="208" r="8"></circle><circle cx="360" cy="296" r="8"></circle><circle cx="328" cy="320" r="8"></circle><circle cx="328" cy="272" r="8"></circle><circle cx="152" cy="296" r="8"></circle><circle cx="184" cy="320" r="8"></circle><circle cx="184" cy="272" r="8"></circle></g></svg>