<!-- icon666.com - MILLIONS vector ICONS FREE --><svg id="Layer_1" enable-background="new 0 0 64 64" viewBox="0 0 64 64" xmlns="http://www.w3.org/2000/svg"><g><path d="m19.6 38.5h-1.3c-4.2 0-7.7-3.4-7.7-7.7v-5.5c0-.2 0-.5 0-.7l2 .2v.5 5.5c0 3.1 2.6 5.7 5.7 5.7h1.3c3.1 0 5.7-2.6 5.7-5.7v-5.5c0-.2 0-.3 0-.5l2-.2v.7 5.5c0 4.3-3.5 7.7-7.7 7.7z"></path></g><g><path d="m32.2 58.3h-26.6v-12.5c0-4.9 3.3-9.2 8.1-10.4l.5 1.9c-3.9 1-6.6 4.5-6.6 8.5v10.5h22.6v-10.5c0-4-2.7-7.5-6.6-8.5l.5-1.9c4.8 1.2 8.1 5.5 8.1 10.4z"></path></g><g><path d="m18.9 42.1c-3.3 0-6.4-1.4-8.7-3.8l1.5-1.4c1.9 2 4.5 3.2 7.2 3.2 2.8 0 5.3-1.1 7.2-3.2l1.5 1.4c-2.3 2.5-5.4 3.8-8.7 3.8z"></path></g><g><path d="m26.7 25.8h-15.6v-6.2c0-3 2.2-5.5 5.4-6.3l.6 2.3c-2.1.6-3.6 2.2-3.6 4v3.8h10.9v-3.8c0-1.8-1.5-3.5-3.6-4l.6-2.3c3.2.8 5.4 3.4 5.4 6.3v6.2z"></path></g><g><path d="m19.1 20.6h-.3c-1.7 0-3.2-1.4-3.2-3.2v-3.3c0-1.7 1.4-3.2 3.2-3.2h.3c1.7 0 3.2 1.4 3.2 3.2v3.3c0 1.8-1.5 3.2-3.2 3.2zm-.3-7.2c-.4 0-.8.3-.8.8v3.3c0 .4.3.8.8.8h.3c.4 0 .8-.3.8-.8v-3.3c0-.4-.3-.8-.8-.8z"></path></g><g><path d="m8.1 23.5h21.7v2.4h-21.7z"></path></g><g><path d="m49.9 58.3h-8.3v-14.8c-5.6-1.8-9.3-6.9-9.3-12.7 0-3.7 1.5-7.1 4.1-9.7.6-.6 1.4-.7 2.2-.4.7.3 1.2 1 1.2 1.9v6.4h11.7v-6.5c0-.8.5-1.5 1.2-1.9.8-.3 1.6-.2 2.2.4 2.7 2.6 4.1 6 4.1 9.7 0 5.8-3.7 10.9-9.2 12.7zm-6.3-2h4.3v-12.8c0-.9.6-1.6 1.4-1.9 4.7-1.5 7.9-5.9 7.9-10.8 0-3.1-1.3-6.1-3.5-8.2v6.5c0 1.1-.9 2-2 2h-11.8c-1.1 0-2-.9-2-2v-6.5c-2.3 2.2-3.6 5.1-3.6 8.2 0 4.9 3.2 9.3 7.9 10.8.8.3 1.4 1 1.4 1.9z"></path></g><g><path d="m18.3 41.1h2v16.1h-2z"></path></g></svg>