<!-- icon666.com - MILLIONS vector ICONS FREE --><svg xmlns="http://www.w3.org/2000/svg" viewBox="0 0 512 512"><g id="outline"><path d="M460,160H392V110.987A32.054,32.054,0,0,0,416,80V72a32.036,32.036,0,0,0-32-32H112A32.036,32.036,0,0,0,80,72v8a32.054,32.054,0,0,0,24,30.987V160H52a36.04,36.04,0,0,0-36,36V424a8,8,0,0,0,8,8v24a8,8,0,0,0,8,8H480a8,8,0,0,0,8-8V432.171a8,8,0,0,0,8-8V196A36.04,36.04,0,0,0,460,160Zm20,36V416H368V176h92A20.023,20.023,0,0,1,480,196ZM400,72v8a16.019,16.019,0,0,1-16,16,8,8,0,0,0-8,8v56H344V110.987A32.054,32.054,0,0,0,368,80V72A31.8,31.8,0,0,0,363.7,56H384A16.019,16.019,0,0,1,400,72ZM112,96A16.019,16.019,0,0,1,96,80V72a16.019,16.019,0,0,1,16-16H336a16.019,16.019,0,0,1,16,16v8a16.019,16.019,0,0,1-16,16,8,8,0,0,0-8,8v56H262.434l32.35-51.76a8,8,0,1,0-13.568-8.48L243.566,160H214.434l32.35-51.76a8,8,0,1,0-13.568-8.48L195.566,160H166.434l32.35-51.76a8,8,0,1,0-13.568-8.48L147.566,160H120V104A8,8,0,0,0,112,96ZM32,196a20.023,20.023,0,0,1,20-20H352V416H32Zm8,236H352v16H40Zm432,16H368V432.171H472Z"></path><path d="M424,336a32,32,0,1,0,32,32A32.036,32.036,0,0,0,424,336Zm0,48a16,16,0,1,1,16-16A16.019,16.019,0,0,1,424,384Z"></path><path d="M384,232a8,8,0,0,0,8,8h24v72a8,8,0,0,0,16,0V240h24a8,8,0,0,0,8-8V200a8,8,0,0,0-8-8H392a8,8,0,0,0-8,8Zm16-24h48v16H400Z"></path><circle cx="264" cy="392" r="8"></circle><circle cx="296" cy="392" r="8"></circle><circle cx="328" cy="392" r="8"></circle><path d="M56,216a8,8,0,0,0-8,8v8a8,8,0,0,0,16,0v-8A8,8,0,0,0,56,216Z"></path><path d="M56,248a8,8,0,0,0-8,8v48a8,8,0,0,0,16,0V256A8,8,0,0,0,56,248Z"></path><path d="M448,56a8,8,0,0,0-16,0v8a8,8,0,0,0,16,0Z"></path><path d="M440,88a8,8,0,0,0-8,8v24a8,8,0,0,0,16,0V96A8,8,0,0,0,440,88Z"></path></g></svg>