<!-- icon666.com - MILLIONS vector ICONS FREE --><svg xmlns="http://www.w3.org/2000/svg" viewBox="0 0 512 512"><g id="outline"><path d="M256,256a32,32,0,1,0-32-32A32.036,32.036,0,0,0,256,256Zm0-48a16,16,0,1,1-16,16A16.019,16.019,0,0,1,256,208Z"></path><path d="M256,496c105.869,0,192-86.131,192-192a191.065,191.065,0,0,0-42.239-120H424a8,8,0,0,0,0-16H403.313l18.344-18.343a8,8,0,0,0-11.314-11.314L392,156.687V136a8,8,0,0,0-16,0v18.239a191.578,191.578,0,0,0-240,0V136a8,8,0,0,0-16,0v20.687l-18.343-18.344a8,8,0,0,0-11.314,11.314L108.687,168H88a8,8,0,0,0,0,16h18.239A191.065,191.065,0,0,0,64,304C64,409.869,150.131,496,256,496Zm0-16c-94.365,0-171.613-74.653-175.81-168l17.015,0c4.182,83.97,73.809,151,158.8,151s154.617-67.029,158.8-151l17.007,0C427.613,405.347,350.365,480,256,480ZM113,304c0-78.85,64.149-143,143-143s143,64.15,143,143-64.15,143-143,143S113,382.847,113,304Zm318.806-8L414.8,296c-4.181-83.971-73.809-151-158.8-151s-154.618,67.03-158.8,151L80.19,296c4.2-93.347,81.445-168,175.81-168S427.612,202.652,431.81,296Z"></path><circle cx="256" cy="280" r="8"></circle><circle cx="224" cy="280" r="8"></circle><circle cx="288" cy="280" r="8"></circle><path d="M240,400h32a24,24,0,0,0,0-48H240a24,24,0,0,0,0,48Zm-8-24a8,8,0,1,1,8,8A8.009,8.009,0,0,1,232,376Zm48,0a8.009,8.009,0,0,1-8,8h-9.376a23.944,23.944,0,0,0,0-16H272A8.009,8.009,0,0,1,280,376Z"></path><path d="M285.81,77.336a8,8,0,0,0,11.921-10.672,55.992,55.992,0,0,0-83.166-.335A8,8,0,0,0,226.4,77.1a39.992,39.992,0,0,1,59.409.241Z"></path><path d="M202.723,55.57a71.988,71.988,0,0,1,108.586,2.345A8,8,0,0,0,323.6,47.666,87.989,87.989,0,0,0,190.887,44.8,8,8,0,0,0,202.723,55.57Z"></path><path d="M256,80a24.047,24.047,0,0,0-17.744,7.866,8,8,0,0,0,11.836,10.767,7.968,7.968,0,0,1,12.054.251,8,8,0,1,0,12.286-10.25A23.946,23.946,0,0,0,256,80Z"></path></g></svg>