<!-- icon666.com - MILLIONS vector ICONS FREE --><svg xmlns="http://www.w3.org/2000/svg" viewBox="0 0 512 512"><g id="outline"><path d="M448,16H64A48.053,48.053,0,0,0,16,64V448a48.053,48.053,0,0,0,48,48H448a48.053,48.053,0,0,0,48-48V64A48.053,48.053,0,0,0,448,16Zm32,432a32.036,32.036,0,0,1-32,32H64a32.036,32.036,0,0,1-32-32V64A32.036,32.036,0,0,1,64,32H448a32.036,32.036,0,0,1,32,32Z"></path><path d="M256,80a64,64,0,1,0,64,64A64.072,64.072,0,0,0,256,80Zm8,111.321V184a8,8,0,0,0-16,0v7.321A48.108,48.108,0,0,1,208.679,152H216a8,8,0,0,0,0-16h-7.321A48.108,48.108,0,0,1,248,96.679V104a8,8,0,0,0,16,0V96.679A48.108,48.108,0,0,1,303.321,136H296a8,8,0,0,0,0,16h7.321A48.108,48.108,0,0,1,264,191.321Z"></path><path d="M285.657,114.343a8,8,0,0,0-11.314,0l-10.275,10.274a21.016,21.016,0,1,0,11.315,11.315l10.274-10.275A8,8,0,0,0,285.657,114.343ZM256,149a5,5,0,1,1,5-5A5.006,5.006,0,0,1,256,149Z"></path><path d="M116,144a36,36,0,1,0,36,36A36.04,36.04,0,0,0,116,144Zm0,56a20,20,0,1,1,20-20A20.023,20.023,0,0,1,116,200Z"></path><path d="M116,360a36,36,0,1,0,36,36A36.04,36.04,0,0,0,116,360Zm0,56a20,20,0,1,1,20-20A20.023,20.023,0,0,1,116,416Z"></path><path d="M396,144a36,36,0,1,0,36,36A36.04,36.04,0,0,0,396,144Zm0,56a20,20,0,1,1,20-20A20.023,20.023,0,0,1,396,200Z"></path><path d="M396,360a36,36,0,1,0,36,36A36.04,36.04,0,0,0,396,360Zm0,56a20,20,0,1,1,20-20A20.023,20.023,0,0,1,396,416Z"></path><circle cx="287.592" cy="394" r="8"></circle><circle cx="255.796" cy="394" r="10"></circle><circle cx="223" cy="394" r="8"></circle><path d="M444,48H68A20.023,20.023,0,0,0,48,68V444a20.023,20.023,0,0,0,20,20H444a20.023,20.023,0,0,0,20-20V68A20.023,20.023,0,0,0,444,48Zm4,396a4,4,0,0,1-4,4H68a4,4,0,0,1-4-4V68a4,4,0,0,1,4-4H444a4,4,0,0,1,4,4Z"></path></g></svg>